<svg xmlns="http://www.w3.org/2000/svg" viewBox="0 0 750 500"><g id="freepik--background-complete--inject-158"><polyline points="346.42 186.41 395.83 213.76 393.97 217.26 345 189.38 346.42 186.41" style="fill:#e0e0e0"></polyline><polygon points="343.99 183.82 346.26 180.34 347.58 181.16 345.54 184.66 343.99 183.82" style="fill:#e0e0e0"></polygon><polygon points="390.22 209.44 392.76 210.9 384.48 263.7 380.57 263.75 390.22 209.44" style="fill:#e0e0e0"></polygon><path d="M369.18,269.2s6-6.1,14.09-5.65a17.49,17.49,0,0,1,12.21,5.62Z" style="fill:#e0e0e0"></path><path d="M344,207.75l-19.56-11.29,5.64-9.78a11.29,11.29,0,0,1,15.43-4.14h0A11.29,11.29,0,0,1,349.68,198Z" style="fill:#e0e0e0"></path><rect x="168.87" y="263.56" width="62.69" height="3.05" transform="translate(400.44 530.17) rotate(180)" style="fill:#ebebeb"></rect><polygon points="241.28 266.61 253.04 222.54 204.09 222.54 193.44 266.61 241.28 266.61" style="fill:#ebebeb"></polygon><polygon points="196.37 263.28 240.1 263.28 250.28 224.58 206.33 224.58 196.37 263.28" style="fill:#e0e0e0"></polygon><rect x="156.45" y="275.64" width="3.17" height="151.16" style="fill:#f5f5f5"></rect><rect x="159.62" y="276.07" width="3.17" height="150.73" style="fill:#ebebeb"></rect><rect x="351.51" y="275.64" width="3.17" height="151.16" style="fill:#ebebeb"></rect><rect x="354.67" y="276.07" width="3.17" height="150.73" style="fill:#e0e0e0"></rect><rect x="142.79" y="266.86" width="240.49" height="12.4" style="fill:#e0e0e0"></rect><rect x="247.22" y="279.26" width="105.87" height="20.52" style="fill:#ebebeb"></rect><path d="M304.88,288.1a2.36,2.36,0,1,1-2.36-2.36A2.36,2.36,0,0,1,304.88,288.1Z" style="fill:#e0e0e0"></path><path d="M125.72,340.59h41.59a5.3,5.3,0,0,0,5.29-5.3V322.48a8.92,8.92,0,0,0-8.92-8.93H125.41Z" style="fill:#ebebeb"></path><path d="M166.61,348.64H84.84a4,4,0,0,1-4-4h0a4,4,0,0,1,4-4h81.77a4,4,0,0,1,4,4h0A4,4,0,0,1,166.61,348.64Z" style="fill:#ebebeb"></path><path d="M68.18,233.23l45-.79,28.56,107.91L80.81,341l-23-94.6A10.62,10.62,0,0,1,68.18,233.23Z" style="fill:#e0e0e0"></path><polygon points="90.58 348.64 77.13 426.86 80.81 426.86 98.51 348.64 90.58 348.64" style="fill:#ebebeb"></polygon><polygon points="122.32 348.64 108.01 426.86 111.7 426.86 130.24 348.64 122.32 348.64" style="fill:#e0e0e0"></polygon><polygon points="157.41 348.64 173.37 426.86 169.68 426.86 149.49 348.64 157.41 348.64" style="fill:#ebebeb"></polygon><path d="M108,232.44l22.26,108h17.08L129.49,245a15.35,15.35,0,0,0-15.11-12.57Z" style="fill:#ebebeb"></path><rect x="559.81" y="261.44" width="62.69" height="3.05" style="fill:#ebebeb"></rect><polygon points="550.09 264.49 538.33 220.42 587.28 220.42 597.93 264.49 550.09 264.49" style="fill:#ebebeb"></polygon><polygon points="595 261.15 551.27 261.15 541.09 222.46 585.04 222.46 595 261.15" style="fill:#e0e0e0"></polygon><rect x="675.41" y="276.11" width="3.17" height="151.48" transform="translate(1354 703.71) rotate(180)" style="fill:#f5f5f5"></rect><rect x="672.25" y="276.55" width="3.17" height="151.05" transform="translate(1347.66 704.14) rotate(180)" style="fill:#ebebeb"></rect><rect x="480.36" y="276.11" width="3.17" height="152.97" transform="translate(963.88 705.19) rotate(180)" style="fill:#ebebeb"></rect><rect x="477.19" y="276.55" width="3.17" height="152.53" transform="translate(957.55 705.63) rotate(180)" style="fill:#e0e0e0"></rect><rect x="451.76" y="267.33" width="240.49" height="12.4" transform="translate(1144.01 547.06) rotate(180)" style="fill:#e0e0e0"></rect><rect x="481.94" y="279.73" width="105.87" height="20.52" transform="translate(1069.75 579.98) rotate(180)" style="fill:#ebebeb"></rect><path d="M530.16,288.57a2.36,2.36,0,1,0,2.36-2.36A2.35,2.35,0,0,0,530.16,288.57Z" style="fill:#e0e0e0"></path><path d="M617.8,340.15H576.22a5.3,5.3,0,0,1-5.3-5.3V322a8.93,8.93,0,0,1,8.93-8.93h38.26Z" style="fill:#ebebeb"></path><path d="M576.91,348.21h81.77a4,4,0,0,0,4-4h0a4,4,0,0,0-4-4H576.91a4,4,0,0,0-4,4h0A4,4,0,0,0,576.91,348.21Z" style="fill:#ebebeb"></path><path d="M675.34,232.79l-45-.79L601.81,339.91l60.9.61,23-94.6A10.63,10.63,0,0,0,675.34,232.79Z" style="fill:#e0e0e0"></path><polygon points="652.94 348.2 666.4 426.42 662.71 426.42 645.01 348.2 652.94 348.2" style="fill:#ebebeb"></polygon><polygon points="621.21 348.2 635.51 426.42 631.82 426.42 613.28 348.2 621.21 348.2" style="fill:#e0e0e0"></polygon><polygon points="586.11 348.2 570.15 426.42 573.84 426.42 594.04 348.2 586.11 348.2" style="fill:#ebebeb"></polygon><path d="M635.51,232,613.25,340H596.18L614,244.57A15.36,15.36,0,0,1,629.14,232Z" style="fill:#ebebeb"></path><rect x="205.5" y="143.07" width="2.3" height="20.56" style="fill:#e0e0e0"></rect><rect x="281.21" y="143.07" width="2.3" height="20.56" style="fill:#e0e0e0"></rect><rect x="197.02" y="134.81" width="96.28" height="8.26" style="fill:#ebebeb"></rect><rect x="261" y="72.94" width="13.27" height="61.87" style="fill:#f5f5f5"></rect><path d="M270.54,120a2.63,2.63,0,1,1-2.63-2.63A2.63,2.63,0,0,1,270.54,120Z" style="fill:#e0e0e0"></path><rect x="265.76" y="89.33" width="4.06" height="25.28" style="fill:#e0e0e0"></rect><rect x="247.52" y="72.94" width="13.27" height="61.87" style="fill:#ebebeb"></rect><path d="M257.05,120a2.63,2.63,0,1,1-2.63-2.63A2.63,2.63,0,0,1,257.05,120Z" style="fill:#fafafa"></path><rect x="252.28" y="89.33" width="4.06" height="25.28" style="fill:#fafafa"></rect><rect x="234.68" y="72.94" width="13.27" height="61.87" style="fill:#e0e0e0"></rect><path d="M244.21,120a2.63,2.63,0,1,1-2.63-2.63A2.63,2.63,0,0,1,244.21,120Z" style="fill:#fafafa"></path><rect x="239.44" y="89.33" width="4.06" height="25.28" style="fill:#fafafa"></rect><polygon points="218.26 133.86 234.21 79.44 228.71 77.02 212.35 131.89 218.26 133.86" style="fill:#e0e0e0"></polygon></g><g id="freepik--Floor--inject-158"><path d="M702.42,427.19c0,.14-146.6.26-327.4.26s-327.44-.12-327.44-.26,146.57-.26,327.44-.26S702.42,427,702.42,427.19Z" style="fill:#263238"></path></g><g id="freepik--Plant--inject-158"><path d="M632.29,372.4a10.41,10.41,0,0,1,4.31,6.93,18.39,18.39,0,0,1-.68,8.29c-1.49,5.2-5.41,10-9.37,13.73-3.81-4.65-3.69-11.62-3.4-15.16.45-5.58,4.65-15.4,9.14-13.79" style="fill:#FF725E"></path><path d="M630.26,411a8.88,8.88,0,0,1,4.24-7.86,11.83,11.83,0,0,1,9-1.23,5,5,0,0,1,3.48,2.33,3.8,3.8,0,0,1-.58,3.81,7.75,7.75,0,0,1-3.29,2.3c-4.27,1.77-8.74,2.7-12.89.65" style="fill:#FF725E"></path><path d="M621.78,426.27a5.75,5.75,0,0,1,.34-1.06l1-2.86a31.34,31.34,0,0,1,4.63-8.89,19.14,19.14,0,0,1,8-6,12.9,12.9,0,0,1,3-.75,6.36,6.36,0,0,1,.83-.07c.19,0,.29,0,.29,0a20.19,20.19,0,0,0-4,1.07,19.57,19.57,0,0,0-7.76,6,33.78,33.78,0,0,0-4.68,8.74c-.48,1.19-.87,2.15-1.15,2.81A6.53,6.53,0,0,1,621.78,426.27Z" style="fill:#263238"></path><path d="M629.75,380.16a1.58,1.58,0,0,1,0,.48l-.15,1.38c-.14,1.2-.36,2.93-.65,5.06-.58,4.28-1.47,10.17-2.59,16.65s-2.28,12.33-3.17,16.54c-.45,2.11-.82,3.82-1.1,5-.13.55-.24,1-.32,1.35a2.87,2.87,0,0,1-.14.47,2,2,0,0,1,.06-.49c.06-.35.15-.8.25-1.36.24-1.23.57-2.93,1-5,.83-4.23,1.94-10.08,3.06-16.56s2-12.36,2.7-16.62c.32-2.09.59-3.8.78-5,.09-.56.16-1,.22-1.37A2.11,2.11,0,0,1,629.75,380.16Z" style="fill:#263238"></path><path d="M622,412.9A20.84,20.84,0,0,0,613.33,396c-1.37-1-3.24-1.76-4.65-.86s-1.48,2.95-1.14,4.59a17.77,17.77,0,0,0,14.27,13.61" style="fill:#FF725E"></path><path d="M613.2,401.14a4.39,4.39,0,0,1,.88.57,9.24,9.24,0,0,1,1,.75,15.85,15.85,0,0,1,1.22,1.09,17.27,17.27,0,0,1,1.36,1.43,21.08,21.08,0,0,1,1.41,1.79,21.61,21.61,0,0,1,3.75,9.63,20.56,20.56,0,0,1,.15,2.27,15.63,15.63,0,0,1-.06,2,13.41,13.41,0,0,1-.19,1.62,10.32,10.32,0,0,1-.24,1.21,7.45,7.45,0,0,1-.29,1c-.09,0,.31-1.47.45-3.85a18.15,18.15,0,0,0,0-2c0-.7-.1-1.44-.19-2.23a23.54,23.54,0,0,0-1.29-4.95,24,24,0,0,0-2.4-4.52,20.91,20.91,0,0,0-1.36-1.79c-.43-.55-.89-1-1.3-1.45C614.39,402,613.15,401.2,613.2,401.14Z" style="fill:#263238"></path></g><g id="freepik--light-bulb--inject-158"><path d="M435.72,100.86a.87.87,0,0,1,.25,0l.75,0a15.63,15.63,0,0,1,7.27,1.44,14.54,14.54,0,0,1,4.78,3.79,16.65,16.65,0,0,1,3.32,6.65,16.12,16.12,0,0,1-.73,8.54,25.8,25.8,0,0,1-1.94,4.27,44.72,44.72,0,0,0-2.21,4.31,36.86,36.86,0,0,0-2.8,9.8l0,.23h-.22l-6.82.11-7.16.11h-.25v-.26c-.12-3.47-1.68-6.64-3.32-9.44-.83-1.42-1.74-2.74-2.59-4.09a39.68,39.68,0,0,1-2.43-4,13.37,13.37,0,0,1-1.08-8.41,17.9,17.9,0,0,1,2.67-6.89,13.42,13.42,0,0,1,4.49-4,17.14,17.14,0,0,1,4.25-1.64,18.13,18.13,0,0,1,2.82-.46l.74,0a.67.67,0,0,1,.25,0,.79.79,0,0,1-.25,0l-.73.08a22,22,0,0,0-2.79.54,17.58,17.58,0,0,0-4.15,1.7,13,13,0,0,0-4.35,4A17.75,17.75,0,0,0,420.9,114a12.94,12.94,0,0,0,1.1,8.14,38.79,38.79,0,0,0,2.42,3.91c.84,1.32,1.76,2.66,2.6,4.09,1.67,2.83,3.28,6,3.41,9.69l-.26-.26,7.16-.11,6.82-.11-.25.23a37.09,37.09,0,0,1,2.85-9.95,45.58,45.58,0,0,1,2.25-4.35,24.43,24.43,0,0,0,1.92-4.18,15.58,15.58,0,0,0,.76-8.3,16.12,16.12,0,0,0-3.18-6.52,14.25,14.25,0,0,0-4.63-3.76,16.44,16.44,0,0,0-4.3-1.37,20.06,20.06,0,0,0-2.85-.23l-.74,0A.76.76,0,0,1,435.72,100.86Z" style="fill:#263238"></path><path d="M439.27,139.24s0-.07,0-.21-.06-.37-.1-.64c-.09-.58-.22-1.41-.38-2.47-.31-2.15-.77-5.25-1.08-9.12-.07-1-.14-2-.18-3s-.08-2.16,0-3.31a9.24,9.24,0,0,1,.78-3.45,5.23,5.23,0,0,1,2.64-2.64,3.53,3.53,0,0,1,3.76.71,2.68,2.68,0,0,1,.81,1.89,3.39,3.39,0,0,1-.71,2,4.55,4.55,0,0,1-1.66,1.35A9.22,9.22,0,0,1,441,121a25,25,0,0,1-4.36.51,25.63,25.63,0,0,1-4.39-.22,8,8,0,0,1-2.08-.6,5.33,5.33,0,0,1-1.74-1.24,4,4,0,0,1-1-1.84,3.14,3.14,0,0,1,.25-2,2.79,2.79,0,0,1,1.44-1.41,2.54,2.54,0,0,1,2,.09,3.8,3.8,0,0,1,1.47,1.25,5.41,5.41,0,0,1,.73,1.72,20.89,20.89,0,0,1,.35,3.53c.12,2.27.23,4.39.33,6.33.19,3.86.35,7,.46,9.16.05,1.08.09,1.92.12,2.49l0,.65a1.19,1.19,0,0,1,0,.22s0-.07,0-.22l-.05-.64c0-.58-.08-1.42-.15-2.49-.13-2.18-.31-5.3-.53-9.16-.11-1.94-.23-4.06-.36-6.33a21,21,0,0,0-.35-3.49,5.09,5.09,0,0,0-.71-1.66,3.51,3.51,0,0,0-1.39-1.17,2.28,2.28,0,0,0-1.81-.09,2.59,2.59,0,0,0-1.34,1.31,2.92,2.92,0,0,0-.23,1.91,3.83,3.83,0,0,0,1,1.75,6.24,6.24,0,0,0,3.7,1.77,24.12,24.12,0,0,0,4.35.21,24.63,24.63,0,0,0,4.32-.5,8.39,8.39,0,0,0,2-.66,4.26,4.26,0,0,0,1.59-1.28,3.14,3.14,0,0,0,.67-1.86,2.45,2.45,0,0,0-.74-1.74,3.34,3.34,0,0,0-3.55-.68,5.11,5.11,0,0,0-2.54,2.54,9.23,9.23,0,0,0-.77,3.38c-.06,1.13,0,2.23,0,3.29s.1,2.07.16,3c.29,3.86.73,7,1,9.12.15,1.06.26,1.9.34,2.47,0,.28.07.49.08.64Z" style="fill:#263238"></path><polygon points="430.17 139.61 444.2 139.25 444.43 148.11 440.41 153.01 435.03 153.3 430.42 147.9 430.17 139.61" style="fill:#e0e0e0"></polygon><path d="M440.41,153a3.84,3.84,0,0,0-2.83-1.11,3.73,3.73,0,0,0-2.64,1.41Z" style="fill:#455a64"></path><path d="M444.05,147.39a2.64,2.64,0,0,1-.51-.21c-.32-.15-.8-.35-1.4-.56a13.56,13.56,0,0,0-9.66.3c-.58.24-1,.47-1.36.63a3.26,3.26,0,0,1-.49.25,2.37,2.37,0,0,1,.45-.32,11.06,11.06,0,0,1,1.34-.7,13.05,13.05,0,0,1,4.86-1.11,12.75,12.75,0,0,1,6.3,1.43A2.45,2.45,0,0,1,444.05,147.39Z" style="fill:#263238"></path><path d="M444.05,145.24a3.33,3.33,0,0,1-.51-.22c-.33-.14-.8-.34-1.4-.55a13.56,13.56,0,0,0-9.66.3c-.58.24-1,.47-1.36.63a4,4,0,0,1-.49.25,2.37,2.37,0,0,1,.45-.32,11.06,11.06,0,0,1,1.34-.7,12.77,12.77,0,0,1,4.86-1.11,12.92,12.92,0,0,1,4.91.81,10.22,10.22,0,0,1,1.38.62A2.85,2.85,0,0,1,444.05,145.24Z" style="fill:#263238"></path><path d="M443.92,143.19a2.64,2.64,0,0,1-.51-.21c-.32-.15-.8-.35-1.39-.56a14.23,14.23,0,0,0-4.86-.74,13.87,13.87,0,0,0-4.81,1c-.58.24-1,.47-1.36.64a2.58,2.58,0,0,1-.49.24,2.37,2.37,0,0,1,.45-.32,11.89,11.89,0,0,1,1.34-.7,12.94,12.94,0,0,1,9.78-.3,12.48,12.48,0,0,1,1.38.62A2.45,2.45,0,0,1,443.92,143.19Z" style="fill:#263238"></path><path d="M428.35,126c-.19.21-.68.18-1.38-.18a8,8,0,0,1-2.46-2.14,12.27,12.27,0,0,1-2.19-4.39,13,13,0,0,1,2.44-11.68,12,12,0,0,1,3.77-3.15,7.87,7.87,0,0,1,3.11-1c.79,0,1.24.12,1.33.39.19.6-1.11,1.45-2.66,3a16.43,16.43,0,0,0-2.33,3,12.61,12.61,0,0,0-1.79,8.55,17.15,17.15,0,0,0,.94,3.68C427.91,124.18,428.76,125.48,428.35,126Z" style="fill:#ebebeb"></path><path d="M432.89,130.87a2,2,0,1,1-1.95-2.15A2,2,0,0,1,432.89,130.87Z" style="fill:#ebebeb"></path><path d="M490.31,124s0-.29-.07-.86-.08-1.42-.15-2.51c0-.56-.07-1.18-.1-1.86s-.22-1.41-.34-2.21-.26-1.67-.4-2.59a10.78,10.78,0,0,0-.3-1.41c-.13-.48-.26-1-.39-1.48A50.58,50.58,0,0,0,482.7,97a52.76,52.76,0,0,0-13.44-15L467,80.34c-.8-.52-1.65-1-2.48-1.52s-1.66-1.07-2.58-1.49L459.18,76c-.46-.21-.92-.45-1.39-.66l-1.47-.53-3-1.08c-1-.34-2.07-.55-3.11-.84a26,26,0,0,0-3.2-.72,50,50,0,0,0-6.67-.78c-1.14,0-2.29-.15-3.44-.13l-3.49.18c-.59,0-1.18,0-1.77.11l-1.76.27c-1.17.2-2.37.34-3.55.58a56.9,56.9,0,0,0-7,2.06l-1.75.65c-.29.11-.59.2-.87.33l-.85.4-3.41,1.65c-1.11.6-2.18,1.31-3.29,2-.54.35-1.11.64-1.63,1L406,81.65a61.08,61.08,0,0,0-6,5.09l-2.68,3-.67.75-.61.8-1.21,1.62-1.21,1.62-1.06,1.73L391.48,98l-.54.88c-.16.3-.3.61-.45.92-.59,1.24-1.19,2.48-1.79,3.72l-1.43,3.91A56.13,56.13,0,0,0,384.55,124a56.14,56.14,0,0,0,2.72,16.65c.47,1.31,1,2.61,1.43,3.91s1.19,2.49,1.79,3.72l.45.93.53.87,1.06,1.75,1.07,1.74,1.21,1.62,1.21,1.62.6.8.68.74,2.68,3a61.08,61.08,0,0,0,6,5.09l1.55,1.16c.52.39,1.09.68,1.63,1,1.11.65,2.17,1.36,3.29,2l3.41,1.65.85.41c.28.12.58.21.87.32l1.75.65a56.9,56.9,0,0,0,7,2.06c1.18.24,2.38.38,3.55.58l1.76.27c.59.07,1.18.07,1.77.11l3.49.18c1.16,0,2.3-.09,3.44-.13a50.37,50.37,0,0,0,6.68-.78,25.89,25.89,0,0,0,3.19-.72c1.05-.29,2.1-.5,3.11-.84l3-1.08,1.46-.53,1.39-.67,2.75-1.31c.91-.42,1.72-1,2.57-1.49s1.68-1,2.48-1.53l2.29-1.7a52.85,52.85,0,0,0,13.43-15A50.58,50.58,0,0,0,488.56,137c.13-.51.26-1,.39-1.48a10.78,10.78,0,0,0,.3-1.41c.14-.92.28-1.79.4-2.59s.27-1.53.34-2.21.07-1.3.1-1.85q.11-1.65.15-2.52c0-.57.07-.86.07-.86s0,.29,0,.86-.06,1.42-.1,2.52c0,.56-.06,1.18-.08,1.86s-.2,1.42-.31,2.23l-.39,2.59a8.14,8.14,0,0,1-.29,1.42c-.12.48-.25,1-.37,1.49A50.53,50.53,0,0,1,483,151.18a52.68,52.68,0,0,1-13.46,15.14l-2.29,1.73c-.81.53-1.66,1-2.5,1.54s-1.67,1.09-2.59,1.51l-2.76,1.33-1.4.67-1.48.54-3,1.1c-1,.34-2.08.56-3.13.85a28.92,28.92,0,0,1-3.22.74,49.49,49.49,0,0,1-6.73.79c-1.15,0-2.31.16-3.47.14l-3.53-.17c-.59,0-1.18,0-1.78-.11l-1.77-.27c-1.19-.2-2.39-.34-3.59-.58a56.12,56.12,0,0,1-7.1-2.07l-1.77-.65c-.29-.11-.59-.21-.88-.33l-.86-.41L412.21,171c-1.13-.6-2.21-1.31-3.32-2-.55-.35-1.13-.65-1.65-1l-1.57-1.17a62.09,62.09,0,0,1-6.05-5.14l-2.71-3-.68-.75-.61-.8-1.22-1.64-1.23-1.64-1.07-1.75L391,150.37l-.54-.89-.46-.93-1.81-3.76c-.48-1.31-1-2.62-1.45-3.94a52.84,52.84,0,0,1,0-33.62c.48-1.32,1-2.64,1.45-4s1.2-2.51,1.81-3.76c.15-.31.29-.62.45-.93l.54-.88,1.07-1.77,1.08-1.75,1.22-1.64,1.22-1.63.62-.81.68-.75,2.71-3a60.71,60.71,0,0,1,6-5.13l1.57-1.17c.52-.39,1.11-.69,1.65-1,1.11-.66,2.19-1.36,3.32-2l3.44-1.66.86-.41c.29-.12.59-.22.88-.33l1.77-.65a57.82,57.82,0,0,1,7.1-2.07c1.2-.24,2.4-.38,3.59-.57l1.77-.27c.59-.08,1.19-.08,1.78-.12l3.53-.17c1.16,0,2.32.1,3.46.14a50.93,50.93,0,0,1,6.73.79,28.42,28.42,0,0,1,3.22.74c1.06.29,2.12.51,3.14.85l3,1.1,1.47.54c.48.21.94.45,1.41.67L462.11,77c.92.42,1.73,1,2.59,1.51s1.69,1,2.49,1.54l2.3,1.72A53,53,0,0,1,483,96.89a50.33,50.33,0,0,1,5.8,14.18l.38,1.49a9.18,9.18,0,0,1,.29,1.42l.39,2.59c.11.81.24,1.55.3,2.23s.06,1.3.09,1.86c0,1.1.07,1.94.1,2.52S490.31,124,490.31,124Z" style="fill:#263238"></path><path d="M437.3,177.06a1.39,1.39,0,0,1,0,.33c0,.26,0,.59,0,1,0,.91,0,2.19,0,3.83,0,3.36.05,8.16.08,14.08,0,11.92,0,28.33.08,46.46,0,14.91,0,28.66-.05,39.54v.21h-.21l-19.07-.09-5.25-.06-1.37,0-.47,0,.47,0,1.37,0,5.25-.05,19.07-.09-.21.2c0-10.88,0-24.63,0-39.54,0-18.13.06-34.54.08-46.46,0-5.92.06-10.72.08-14.08,0-1.64,0-2.92.05-3.83,0-.41,0-.74,0-1A1.39,1.39,0,0,1,437.3,177.06Z" style="fill:#263238"></path></g><g id="freepik--speech-bubbles--inject-158"><path d="M640.72,133.53a3.58,3.58,0,0,1-.08-.56c0-.39-.1-.94-.18-1.63a20.18,20.18,0,0,0-.44-2.63c-.12-.51-.19-1.08-.37-1.66s-.37-1.19-.57-1.84a31.45,31.45,0,0,0-4.55-8.71,30.32,30.32,0,0,0-9.6-8.36,30.67,30.67,0,0,0-18.74-3.57c-.7.06-1.39.25-2.09.37a14.39,14.39,0,0,0-2.11.51,29.2,29.2,0,0,0-8.17,3.71,30.59,30.59,0,0,0-12.09,15.17,30.09,30.09,0,0,0-1.79,10.43,29.32,29.32,0,0,0,1.92,10.74l.41,1,.05.14-.05.13c-2.3,5.28-4.55,10.46-6.72,15.48l-.39-.44,13.69-5.26.17-.07.13.13a30.71,30.71,0,0,0,12.93,7.47,30.5,30.5,0,0,0,24.69-3.83,31.21,31.21,0,0,0,7.7-7.18,33.43,33.43,0,0,0,4.22-7.64,34.19,34.19,0,0,0,1.63-6.38c.11-.89.21-1.69.29-2.38s0-1.26,0-1.74,0-.81,0-1.08a1.65,1.65,0,0,1,0-.36,1.41,1.41,0,0,1,0,.36c0,.27,0,.63,0,1.08v1.75l-.24,2.4a34.37,34.37,0,0,1-1.56,6.46,34,34,0,0,1-4.2,7.77,31.45,31.45,0,0,1-7.76,7.33,30.84,30.84,0,0,1-25.06,4,31.11,31.11,0,0,1-13.19-7.57l.31.06-13.69,5.28-.69.27.31-.7c2.17-5,4.42-10.2,6.71-15.49v.27l-.42-1.07a29.9,29.9,0,0,1-2-11,30.45,30.45,0,0,1,1.85-10.66,31.12,31.12,0,0,1,12.35-15.46,29.62,29.62,0,0,1,8.33-3.74,15.1,15.1,0,0,1,2.14-.51c.72-.12,1.42-.31,2.14-.38a31.54,31.54,0,0,1,4.21-.23,29.68,29.68,0,0,1,14.8,4,30.74,30.74,0,0,1,9.67,8.55,31.6,31.6,0,0,1,4.5,8.85l.54,1.87c.18.58.24,1.15.35,1.67a17.86,17.86,0,0,1,.38,2.65q.07,1.05.12,1.65A3,3,0,0,1,640.72,133.53Z" style="fill:#263238"></path><path d="M601.89,134.76a2.24,2.24,0,1,1-2.23-2.23A2.23,2.23,0,0,1,601.89,134.76Z" style="fill:#FF725E"></path><path d="M612,134.76a2.24,2.24,0,1,1-2.24-2.23A2.24,2.24,0,0,1,612,134.76Z" style="fill:#FF725E"></path><path d="M622,134.76a2.24,2.24,0,1,1-2.23-2.23A2.23,2.23,0,0,1,622,134.76Z" style="fill:#FF725E"></path><path d="M268.18,205s0-.11.05-.34.06-.57.11-1a11.13,11.13,0,0,1,.26-1.6c.08-.31.12-.65.23-1l.34-1.13a19.07,19.07,0,0,1,2.77-5.29,18.62,18.62,0,0,1,5.84-5.09,19.25,19.25,0,0,1,4.12-1.7,18.84,18.84,0,0,1,4.75-.62,19.58,19.58,0,0,1,2.52.15c.43,0,.85.16,1.28.23a8.11,8.11,0,0,1,1.27.31,17.76,17.76,0,0,1,5,2.25,18.57,18.57,0,0,1,7.34,9.23,18,18,0,0,1,1.09,6.34,17.72,17.72,0,0,1-1.16,6.53l-.25.63,0,.09,0,.08c1.4,3.21,2.76,6.36,4.09,9.41l.23-.27-8.32-3.2-.11,0-.08.08a18.27,18.27,0,0,1-16,4.92,18.32,18.32,0,0,1-6.82-2.71,18.94,18.94,0,0,1-4.68-4.36,18.32,18.32,0,0,1-3.56-8.53q-.1-.81-.18-1.44c0-.42,0-.77,0-1.06s0-.49,0-.66a2,2,0,0,0,0-.22,1,1,0,0,0,0,.22v.66c0,.29,0,.65,0,1.06s.09.92.15,1.46a18.28,18.28,0,0,0,3.5,8.65,18.92,18.92,0,0,0,4.72,4.46,18.74,18.74,0,0,0,15.24,2.43,18.88,18.88,0,0,0,8-4.6l-.19,0,8.32,3.21.42.16-.18-.42c-1.33-3.06-2.69-6.21-4.08-9.42V213l.25-.65a18.24,18.24,0,0,0,1.19-6.67,18.48,18.48,0,0,0-1.12-6.48,19,19,0,0,0-7.51-9.4,18.08,18.08,0,0,0-5.07-2.28,9.82,9.82,0,0,0-1.3-.31c-.44-.07-.86-.19-1.3-.23a20.27,20.27,0,0,0-2.56-.14,18.15,18.15,0,0,0-9,2.4,18.83,18.83,0,0,0-5.88,5.2,19.21,19.21,0,0,0-2.73,5.38q-.18.6-.33,1.14a8.42,8.42,0,0,0-.21,1,9.67,9.67,0,0,0-.24,1.61c0,.43-.05.76-.07,1A1.24,1.24,0,0,0,268.18,205Z" style="fill:#263238"></path><path d="M291.79,205.7a1.36,1.36,0,1,0,1.36-1.36A1.36,1.36,0,0,0,291.79,205.7Z" style="fill:#263238"></path><circle cx="287.03" cy="205.7" r="1.36" style="fill:#263238"></circle><circle cx="280.91" cy="205.7" r="1.36" style="fill:#263238"></circle><path d="M215.9,265.75a2.26,2.26,0,0,1-.56.07l-1.64.13a17.38,17.38,0,0,0-2.64.36c-.51.11-1.09.15-1.67.33l-1.86.52a30.6,30.6,0,0,0-8.87,4.45,31.48,31.48,0,0,0-8.7,9.77,31.88,31.88,0,0,0-4.33,15.18,35.62,35.62,0,0,0,.09,4.37c.05.74.21,1.47.31,2.22a14.26,14.26,0,0,0,.43,2.22,31.77,31.77,0,0,0,18.14,22A28.78,28.78,0,0,0,215,329.66a28,28,0,0,0,10.8-1.6l1.05-.4.14-.05.13.06,15.23,7.65-.45.39q-2.46-7.54-4.77-14.58L237,321l.14-.14a32.47,32.47,0,0,0,7.92-13.3,33.49,33.49,0,0,0,1.1-14.12,32.52,32.52,0,0,0-10.95-20.33,33.67,33.67,0,0,0-7.48-4.72,33.2,33.2,0,0,0-6.32-2l-2.36-.39-1.75-.11-1.06-.08a1.61,1.61,0,0,1-.37-.05h.37l1.07,0,1.75.07,2.39.34a32,32,0,0,1,6.4,1.89,32.93,32.93,0,0,1,7.61,4.7,32.59,32.59,0,0,1,7,8.43,33.1,33.1,0,0,1,4.17,12.11,33.82,33.82,0,0,1-1.06,14.37,33,33,0,0,1-8,13.57l.07-.32,4.79,14.58.24.74-.69-.35-15.23-7.64h.26l-1.08.4a28.66,28.66,0,0,1-11,1.64A29.38,29.38,0,0,1,204.35,328,32.38,32.38,0,0,1,185.9,305.5a14.65,14.65,0,0,1-.43-2.27c-.1-.75-.26-1.5-.3-2.25a33.06,33.06,0,0,1-.08-4.44,34.21,34.21,0,0,1,1.35-8.3,33.59,33.59,0,0,1,3.12-7.09,31.65,31.65,0,0,1,8.89-9.84,30.66,30.66,0,0,1,9-4.39l1.89-.5c.59-.17,1.17-.2,1.69-.3a16.58,16.58,0,0,1,2.66-.3l1.65-.07Z" style="fill:#263238"></path><rect x="210.76" y="287.08" width="17.72" height="17.72" rx="3.55" transform="translate(-1.27 0.95) rotate(-0.25)" style="fill:#FF725E"></rect><rect x="210.76" y="287.08" width="17.72" height="17.72" rx="3.55" transform="translate(-1.27 0.95) rotate(-0.25)" style="opacity:0.4"></rect><rect x="206.35" y="291.53" width="17.72" height="17.72" rx="3.55" transform="translate(-1.29 0.93) rotate(-0.25)" style="fill:#FF725E"></rect></g><g id="freepik--character-3--inject-158"><path d="M446,204.52c1.56-1.64,8.7,4.55,9.34,5s1.36-.44.76-.84c-.87-.57-9.83-6.86-8.31-8.49.84-.89,2.32.77,2.32.77s7.95,6.5,8.64,5.71-3.84-4.78-5.46-6-1.68-2.47-.55-2.74c.77-.18,5.84,3.48,7.42,4.73s5.84,4.78,5.15,1.33.08-6.36.83-7a1.1,1.1,0,0,1,1.68,1.24,12.74,12.74,0,0,0,0,3.54,8.2,8.2,0,0,0,.78,2.74c.48,1,.93,1.83,1.33,2.53,4.77,2.88,18.51,10.5,32.5,12.13,2.53.29,12.31-15,12.31-15L530,216.6s.11,1-10.86,14.52c-14.93,18.42-58.37-13-58.37-13l0-.05a107.18,107.18,0,0,1-10.17-5c-4.46-2.75-4.22-3.15-3.81-3.62,1.1-1.25,8,4.54,7.26,2.43S444.83,205.77,446,204.52Z" style="fill:#b78876"></path><path d="M572.89,184.08a13.25,13.25,0,0,1-2.42-2.43c-.77-1.34-.51-3-.1-4.52a10.43,10.43,0,0,0,.67-4.56c-.7-3.86-6.06-5.35-7.06-9.15-.54-2,.34-4.12.6-6.2a10.47,10.47,0,0,0-15.38-10.5,11.47,11.47,0,0,0-6.32-4.06c-3.6-.86-8.07-2-11.37-.35a9.47,9.47,0,0,0-4.85,4.74c-1,2.57.52,7.37,1.26,10s1.29,5.66-.17,8-4.3,3.14-6.09,5.12a7.13,7.13,0,0,0,.74,9.91c-3.19-.19-5.88,3.06-5.77,6.25s2.45,6,5.29,7.43a20.56,20.56,0,0,0,9.32,1.76A56.84,56.84,0,0,0,543,194.28c3.19-.67,6.52-1.74,8.6-4.26a9.16,9.16,0,0,0,.89-1.34l.66,6.3a21.49,21.49,0,0,0,10.36,3.54,11.63,11.63,0,0,0,9.74-4.28C575.46,191.26,575.51,186.69,572.89,184.08Z" style="fill:#FF725E"></path><path d="M572.89,184.08a13.25,13.25,0,0,1-2.42-2.43c-.77-1.34-.51-3-.1-4.52a10.43,10.43,0,0,0,.67-4.56c-.7-3.86-6.06-5.35-7.06-9.15-.54-2,.34-4.12.6-6.2a10.47,10.47,0,0,0-15.38-10.5,11.47,11.47,0,0,0-6.32-4.06c-3.6-.86-8.07-2-11.37-.35a9.47,9.47,0,0,0-4.85,4.74c-1,2.57.52,7.37,1.26,10s1.29,5.66-.17,8-4.3,3.14-6.09,5.12a7.13,7.13,0,0,0,.74,9.91c-3.19-.19-5.88,3.06-5.77,6.25s2.45,6,5.29,7.43a20.56,20.56,0,0,0,9.32,1.76A56.84,56.84,0,0,0,543,194.28c3.19-.67,6.52-1.74,8.6-4.26a9.16,9.16,0,0,0,.89-1.34l.66,6.3a21.49,21.49,0,0,0,10.36,3.54,11.63,11.63,0,0,0,9.74-4.28C575.46,191.26,575.51,186.69,572.89,184.08Z" style="opacity:0.4"></path><path d="M534.79,262.92s-20.73,67.29-19.42,89,17.09,75.79,17.09,75.79Z" style="fill:#aa6550"></path><path d="M564.06,251.46c.46-.12,9.56,13.24,9.86,24.72a29.82,29.82,0,0,1-.13,3.38,42,42,0,0,1-2.86,11.71c-7.69,19.4-15.61,42.43-15.74,47.66-.41,16.16-7.39,88.7-7.39,88.7l-15.33.4-4.59-88.65,7.59-88.65Z" style="fill:#b78876"></path><path d="M570.27,251.56s11.55,14.87,3.5,38.27c-8,23.21-2.27,51.56-2.27,51.56s-10.21-7.66-17.45-4.27c-8.24,3.85-13.73,8.45-24,4-10.68-4.66-21.32-7.22-25.87,1.71l12-52.47L525,256.85Z" style="fill:#263238"></path><path d="M533,430l0-2,15.82-.3,0,6.17-1,.07c-4.35.24-22.13.93-25,0C519.58,433,533,430,533,430Z" style="fill:#FF725E"></path><g style="opacity:0.6000000000000001"><path d="M543.15,434a5.41,5.41,0,0,1,2-3.36,5.28,5.28,0,0,1,3.68-1.15v4.41Z" style="fill:#fff"></path></g><g style="opacity:0.6000000000000001"><path d="M526.46,431.72s-4.7,1.36-4.11,2.13,18.58.75,26.52,0l0-.35-21,.21S527.37,431.76,526.46,431.72Z" style="fill:#fff"></path></g><path d="M549,433.42l-.27,0-.78,0-2.86.13c-2.42.09-5.77.17-9.46.18s-7.05-.06-9.47-.14l-2.86-.11-.78-.05-.27,0h1l2.87.06c2.42,0,5.76.09,9.46.08s7-.07,9.45-.12l2.87-.07H549Z" style="fill:#263238"></path><path d="M527.85,434.05a6.55,6.55,0,0,0-.53-1.37,7.66,7.66,0,0,0-1-1.09,2.52,2.52,0,0,1,1.51,2.46Z" style="fill:#263238"></path><path d="M532.8,431.32s-.27-.25-.5-.61-.38-.68-.33-.71.26.25.5.61S532.85,431.29,532.8,431.32Z" style="fill:#263238"></path><path d="M534.08,430.64s-.29-.13-.56-.37-.46-.47-.43-.51.29.12.56.37S534.11,430.6,534.08,430.64Z" style="fill:#263238"></path><path d="M534.88,429.15a3.41,3.41,0,0,1-1.64,0,1.87,1.87,0,0,1,.82-.11A2,2,0,0,1,534.88,429.15Z" style="fill:#263238"></path><path d="M535.16,428.1a1.59,1.59,0,0,1-.92.27,1.61,1.61,0,0,1-1-.13,6,6,0,0,1,.94-.06A5.08,5.08,0,0,1,535.16,428.1Z" style="fill:#263238"></path><path d="M532.27,429.94a3.05,3.05,0,0,1-1,0,6,6,0,0,1-1.08-.24,3,3,0,0,1-.61-.25.57.57,0,0,1-.26-.32.39.39,0,0,1,.16-.4,1.85,1.85,0,0,1,2.3.54,2,2,0,0,1,.33.67.56.56,0,0,1,0,.28,2.76,2.76,0,0,0-.46-.87,1.78,1.78,0,0,0-.87-.56,1.57,1.57,0,0,0-1.2.09c-.16.11-.1.3.08.41a2.87,2.87,0,0,0,.57.24,6.69,6.69,0,0,0,1,.27C531.88,429.91,532.27,429.91,532.27,429.94Z" style="fill:#263238"></path><path d="M532,430a1,1,0,0,1-.11-.7,1.56,1.56,0,0,1,.27-.74A1,1,0,0,1,533,428a.41.41,0,0,1,.32.47,1,1,0,0,1-.18.45,3.23,3.23,0,0,1-.47.61,1.77,1.77,0,0,1-.58.42s.2-.19.48-.51a3.08,3.08,0,0,0,.42-.61c.14-.21.24-.6,0-.64s-.51.23-.67.43a1.84,1.84,0,0,0-.28.66A4.41,4.41,0,0,0,532,430Z" style="fill:#263238"></path><path d="M549.06,429.4s-.45,0-1.16,0a5.1,5.1,0,0,0-2.54,1.06,5.16,5.16,0,0,0-1.59,2.24,10.45,10.45,0,0,0-.29,1.13s0-.12,0-.32a3.59,3.59,0,0,1,.17-.85,4.8,4.8,0,0,1,1.59-2.35,4.91,4.91,0,0,1,2.65-1,3.81,3.81,0,0,1,.86,0A1,1,0,0,1,549.06,429.4Z" style="fill:#263238"></path><path d="M541.47,431.93a8.89,8.89,0,0,1-2.3.23,8.7,8.7,0,0,1-2.31-.18c0-.06,1,0,2.3,0S541.46,431.87,541.47,431.93Z" style="fill:#263238"></path><path d="M544.56,431.92s-.09.22-.19.45-.16.45-.22.45-.08-.25,0-.52S544.52,431.88,544.56,431.92Z" style="fill:#263238"></path><path d="M545.72,430.47s-.07.2-.23.37-.32.27-.36.23.06-.2.23-.37S545.68,430.43,545.72,430.47Z" style="fill:#263238"></path><path d="M547.38,429.8c0,.06-.22.06-.45.14s-.4.2-.44.17.09-.26.38-.35S547.4,429.76,547.38,429.8Z" style="fill:#263238"></path><path d="M548.57,429.49c0,.05-.07.13-.2.18s-.25.05-.27,0,.07-.13.2-.18S548.55,429.44,548.57,429.49Z" style="fill:#263238"></path><path d="M505.17,217.29l17.64,9.93L524,226l1.3,2.45-1.2,32.87L572,252.24l-3.91-5.63c-3.76-5.19-2.92-12.47-1.38-18.69l.53-2.13,10.1.17s1-5.7,0-18.37c0-.18,0-.37-.05-.55a21.76,21.76,0,0,0-23.16-19.69l-17.44,1.19s-13.89-2.86-23.35,13.45Z" style="fill:#455a64"></path><path d="M526.44,212a12.59,12.59,0,0,1-.63,2.47c-.52,1.67-1.14,3.65-1.83,5.84a9,9,0,0,0-.39,3.24,8.86,8.86,0,0,0,.71,2.58,23,23,0,0,1,1,2.32,8.75,8.75,0,0,1-1.37-2.16,8.27,8.27,0,0,1-.85-2.69,8.57,8.57,0,0,1,.36-3.43c.71-2.31,1.46-4.33,2-5.82A11.89,11.89,0,0,1,526.44,212Z" style="fill:#263238"></path><path d="M577.35,225.58a6.25,6.25,0,0,1-1.37,0l-3.71-.23c-3.13-.23-7.46-.57-12.24-1l-2.28-.19-.25,0,0-.25c.26-4.24.25-8,.42-10.72.08-1.35.17-2.43.26-3.18a5.32,5.32,0,0,1,.19-1.14,5.74,5.74,0,0,1,0,1.16c0,.84-.06,1.9-.1,3.18-.08,2.7,0,6.46-.26,10.73l-.23-.27,2.28.2c4.77.41,9.1.81,12.22,1.13l3.7.4A7.66,7.66,0,0,1,577.35,225.58Z" style="fill:#263238"></path><path d="M518.09,208.64c-.11.09-.5-.19-.88-.62s-.59-.87-.48-1,.5.18.88.62S518.2,208.55,518.09,208.64Z" style="fill:#fafafa"></path><path d="M528.7,206.54c-.09-.11.33-.62.82-1.23s.91-1.13,1-1.06-.1.73-.63,1.38S528.79,206.65,528.7,206.54Z" style="fill:#fafafa"></path><path d="M527.39,200.76c-.12.07-.41-.18-.66-.58s-.33-.77-.21-.84.42.18.66.57S527.52,200.68,527.39,200.76Z" style="fill:#fafafa"></path><path d="M531.77,220.06c-.13.06-.44-.31-.8-.76s-.65-.84-.56-1,.57.13,1,.63S531.9,220,531.77,220.06Z" style="fill:#fafafa"></path><path d="M548.12,216.36c-.11-.08.18-.71.66-1.4s1-1.19,1.09-1.11-.18.71-.66,1.4S548.24,216.44,548.12,216.36Z" style="fill:#fafafa"></path><path d="M542.45,209.81c-.12.07-.56-.4-1-1.05s-.68-1.26-.56-1.34.57.39,1,1.05S542.57,209.73,542.45,209.81Z" style="fill:#fafafa"></path><path d="M541,228.79c.09.11-.32.62-.92,1.13s-1.17.84-1.26.73.32-.62.92-1.13S540.94,228.68,541,228.79Z" style="fill:#fafafa"></path><path d="M530.76,238.18c-.14.06-.57-.63-1.15-1.43s-1.11-1.42-1-1.53.81.37,1.43,1.22S530.89,238.13,530.76,238.18Z" style="fill:#fafafa"></path><path d="M551.17,233.69c0,.15-.43.39-.91.79s-.81.81-1,.74,0-.67.62-1.14S551.15,233.56,551.17,233.69Z" style="fill:#fafafa"></path><path d="M551.38,226c-.13.07-.6-.54-1.21-1.25s-1.14-1.28-1-1.4.8.3,1.44,1.06S551.51,225.89,551.38,226Z" style="fill:#fafafa"></path><path d="M540.57,241.67c-.14,0-.38-.53-.53-1.26s-.17-1.33,0-1.36.37.53.53,1.26S540.71,241.64,540.57,241.67Z" style="fill:#fafafa"></path><path d="M514.58,218c-.1.11-.56-.19-1-.65s-.77-.92-.67-1,.57.19,1,.65S514.68,217.94,514.58,218Z" style="fill:#fafafa"></path><path d="M533.39,192.25c.13.05,0,.62-.21,1.28s-.56,1.16-.7,1.1,0-.62.21-1.28S533.26,192.2,533.39,192.25Z" style="fill:#fafafa"></path><path d="M523.23,216.69c-.14,0-.36-.52-.49-1.21s-.12-1.27,0-1.3.36.52.49,1.21S523.37,216.66,523.23,216.69Z" style="fill:#fafafa"></path><path d="M552.38,204.22c0,.14-.74.22-1.59,0s-1.45-.68-1.38-.8.72.08,1.51.3S552.38,204.07,552.38,204.22Z" style="fill:#fafafa"></path><path d="M562.13,202.92c-.12-.09.22-.78.54-1.66s.52-1.63.66-1.62.18.85-.17,1.8S562.24,203,562.13,202.92Z" style="fill:#fafafa"></path><path d="M563.33,215.53c-.14.05-.42-.41-.85-.86s-.87-.77-.81-.91.67,0,1.19.55S563.46,215.49,563.33,215.53Z" style="fill:#fafafa"></path><path d="M564,222.44c0,.14-.58.08-1.22,0s-1.16-.1-1.18-.25.53-.34,1.23-.27S564,222.31,564,222.44Z" style="fill:#fafafa"></path><path d="M571.5,222.31c-.09-.13.35-.54.68-1.16s.44-1.21.59-1.22.28.71-.13,1.46S571.56,222.43,571.5,222.31Z" style="fill:#fafafa"></path><path d="M570.35,210.15c-.11-.1.38-.8,1.08-1.57s1.37-1.31,1.47-1.22-.38.8-1.08,1.57S570.45,210.24,570.35,210.15Z" style="fill:#fafafa"></path><path d="M499.76,260.15c.45-2.22,9.79-.77,10.59-.7s.92-1.09.19-1.11c-1,0-12-.6-11.54-2.78.23-1.21,2.37-.58,2.37-.58s10.19,1.28,10.35.25-5.78-2-7.81-2.19-2.74-1.21-1.93-2c.56-.57,6.8-.16,8.8.07s7.49.94,5.08-1.62-3.32-5.42-3-6.37a1.1,1.1,0,0,1,2.07.16,13.15,13.15,0,0,0,1.91,3,8.35,8.35,0,0,0,2.11,1.91c.94.59,1.76,1,2.47,1.43,5.58-.1,21.27-.93,34-7,2.3-1.1,2.46-18.57,2.46-18.57l19.51,1.73s0,5-1.48,18.07c-2.73,23.56-56.38,20-56.38,20v-.05a105.07,105.07,0,0,1-11.27,1.17c-5.23,0-5.24-.43-5.14-1,.26-1.64,9.2-.42,7.43-1.79S499.41,261.85,499.76,260.15Z" style="fill:#b78876"></path><path d="M556,151.55l0,2.53-.51,37.74a8.1,8.1,0,0,1-8.57,7.73h0a8.56,8.56,0,0,1-8.6-8.2c0-4.65-.11-9.54-.11-9.54s-6-1-7.23-8.8c-.62-3.89-.42-10.26-.09-15.46a8.25,8.25,0,0,1,9.09-7.7Z" style="fill:#b78876"></path><path d="M532.55,162.33a1,1,0,0,0,1,1,1,1,0,0,0,1-.9,1,1,0,0,0-1-1A1,1,0,0,0,532.55,162.33Z" style="fill:#263238"></path><path d="M532.18,160.86c.12.13.88-.43,2-.43s1.87.54,2,.41-.06-.29-.41-.54a2.7,2.7,0,0,0-1.59-.49,2.65,2.65,0,0,0-1.56.5C532.23,160.56,532.12,160.8,532.18,160.86Z" style="fill:#263238"></path><path d="M542.76,162.33a1,1,0,0,0,1,1,1,1,0,0,0,1-.9,1,1,0,0,0-1-1A1,1,0,0,0,542.76,162.33Z" style="fill:#263238"></path><path d="M542.77,161.06c.13.13.89-.43,2-.43s1.86.54,2,.41-.07-.29-.41-.54a2.7,2.7,0,0,0-1.59-.49,2.62,2.62,0,0,0-1.56.5C542.83,160.77,542.71,161,542.77,161.06Z" style="fill:#263238"></path><path d="M538.86,169.05a7.35,7.35,0,0,0-1.75-.31c-.27,0-.53-.08-.58-.27a1.39,1.39,0,0,1,.18-.82l.82-2.09a36.23,36.23,0,0,0,1.83-5.49,34.84,34.84,0,0,0-2.27,5.33l-.78,2.1a1.65,1.65,0,0,0-.14,1.09.69.69,0,0,0,.45.4,2.16,2.16,0,0,0,.47.06A6.36,6.36,0,0,0,538.86,169.05Z" style="fill:#263238"></path><path d="M538.12,181.81A19.86,19.86,0,0,0,548.58,179s-2.54,5.37-10.36,4.64Z" style="fill:#aa6550"></path><path d="M539.32,171.65a2,2,0,0,1,1.74-.72,1.76,1.76,0,0,1,1.22.66,1.1,1.1,0,0,1,.09,1.28,1.29,1.29,0,0,1-1.41.36,4,4,0,0,1-1.38-.82,1,1,0,0,1-.31-.32.36.36,0,0,1,0-.4" style="fill:#aa6550"></path><path d="M542,169.8c-.17,0-.17,1.16-1.17,2s-2.25.7-2.26.87.28.22.8.24a2.92,2.92,0,0,0,1.89-.66,2.54,2.54,0,0,0,.91-1.67C542.25,170.08,542.11,169.79,542,169.8Z" style="fill:#263238"></path><path d="M558.49,158.7c-.12-2.78-.33-5.77-2.09-7.92-2-2.39-5.39-3.08-8.48-2.84a5.34,5.34,0,0,0-2.5.72,7.67,7.67,0,0,0-2.8.3,23.52,23.52,0,0,1-2.56.5,6.24,6.24,0,0,1-2-.05,5.4,5.4,0,0,1-.95-.34c-.43-.19-1-.49-1.61-.78-.31-.15-.65-.3-1-.44l-.55-.2c-.2-.06-.41-.14-.62-.19a7.06,7.06,0,0,0-2.34-.19,4.24,4.24,0,0,0-3.19,1.67,1.28,1.28,0,0,0,.06,1.74,14.52,14.52,0,0,0,1.34.73,8.33,8.33,0,0,1,1.13,1c.2.19.42.41.61.63.05.06.09.12.15.18l.22.22.54.51a12.46,12.46,0,0,0,1.67,1.32,8.85,8.85,0,0,0,2.91,1.27,9,9,0,0,0,5.92-.72,9.22,9.22,0,0,0,3-2.38,12.56,12.56,0,0,0,2.3,2.89A4.53,4.53,0,0,1,549,158a4.28,4.28,0,0,1-.47,2.94,12.59,12.59,0,0,0-1,5.4,7.33,7.33,0,0,0,2.22,4.93,6.19,6.19,0,0,1,1.71,1.75c.47,1,0,2.21-.27,3.3a11.58,11.58,0,0,0,.16,7.2c.87,2.28,3.6,3.09,5.9,3.89l.49-2.45C559.27,176.29,558.88,167.45,558.49,158.7Z" style="fill:#FF725E"></path><path d="M558.49,158.7c-.12-2.78-.33-5.77-2.09-7.92-2-2.39-5.39-3.08-8.48-2.84a5.34,5.34,0,0,0-2.5.72,7.67,7.67,0,0,0-2.8.3,23.52,23.52,0,0,1-2.56.5,6.24,6.24,0,0,1-2-.05,5.4,5.4,0,0,1-.95-.34c-.43-.19-1-.49-1.61-.78-.31-.15-.65-.3-1-.44l-.55-.2c-.2-.06-.41-.14-.62-.19a7.06,7.06,0,0,0-2.34-.19,4.24,4.24,0,0,0-3.19,1.67,1.28,1.28,0,0,0,.06,1.74,14.52,14.52,0,0,0,1.34.73,8.33,8.33,0,0,1,1.13,1c.2.19.42.41.61.63.05.06.09.12.15.18l.22.22.54.51a12.46,12.46,0,0,0,1.67,1.32,8.85,8.85,0,0,0,2.91,1.27,9,9,0,0,0,5.92-.72,9.22,9.22,0,0,0,3-2.38,12.56,12.56,0,0,0,2.3,2.89A4.53,4.53,0,0,1,549,158a4.28,4.28,0,0,1-.47,2.94,12.59,12.59,0,0,0-1,5.4,7.33,7.33,0,0,0,2.22,4.93,6.19,6.19,0,0,1,1.71,1.75c.47,1,0,2.21-.27,3.3a11.58,11.58,0,0,0,.16,7.2c.87,2.28,3.6,3.09,5.9,3.89l.49-2.45C559.27,176.29,558.88,167.45,558.49,158.7Z" style="opacity:0.4"></path><path d="M542.5,156.84c.1.29,1.18.15,2.44.3s2.29.5,2.46.24-.1-.41-.52-.69a4.16,4.16,0,0,0-1.82-.64,4.07,4.07,0,0,0-1.91.23C542.68,156.47,542.45,156.7,542.5,156.84Z" style="fill:#263238"></path><path d="M532.57,157.74c.19.24.94,0,1.83,0s1.65.16,1.82-.09,0-.37-.37-.61a2.53,2.53,0,0,0-1.48-.4,2.46,2.46,0,0,0-1.46.5C532.59,157.37,532.49,157.62,532.57,157.74Z" style="fill:#263238"></path></g><g id="freepik--character-2--inject-158"><path d="M404.17,358.67c2.61,19.36,8.89,38.18,8.1,57.71-.18,4.69-.79,9.85-4.14,13-2.47,2.33-5.93,3.11-9.22,3.73a318.32,318.32,0,0,1-127.65-1.74c-5.62-1.23-11.8-3-14.79-8.1-2-3.42-2.12-7.65-2.17-11.66l-.36-29c-.19-15.77-.37-31.65,2.24-47.19s8.23-30.9,18.38-42.72,25.25-19.68,40.53-18.51C315.09,274.18,398.51,316.65,404.17,358.67Z" style="fill:#455a64"></path><path d="M371.15,282.78s9.07,20.22,17.07,20.76,18.5,0,18.5,0l1.33-13.34s-14.49-2.54-15.91-4.09-10.59-14-10.59-14Z" style="fill:#eb996e"></path><path d="M390.62,439.29l-.47-8.9-16.82.78.53,13h1.05c4.65.05,23.67-.11,26.73-1.18C405.06,441.82,390.62,439.29,390.62,439.29Z" style="fill:#FF725E"></path><g style="opacity:0.5"><path d="M380,443.77a5.79,5.79,0,0,0-2.31-3.45,5.68,5.68,0,0,0-4-1l.21,4.66Z" style="fill:#fff"></path></g><g style="opacity:0.4"><path d="M397.68,440.77s5.08,1.2,4.49,2.05-19.8,1.72-28.31,1.37v-.38l22.42-.83S396.71,440.86,397.68,440.77Z" style="fill:#fff"></path></g><path d="M373.61,443.81a.94.94,0,0,0,.29,0h3.9c2.58,0,6.16-.11,10.1-.29s7.52-.41,10.1-.62l3.05-.26.83-.09.29,0a1.2,1.2,0,0,0-.3,0l-.83,0-3.05.2c-2.59.17-6.15.38-10.1.56s-7.51.28-10.1.34l-3.06.08-.83,0Z" style="fill:#263238"></path><path d="M396.3,443.24a6.74,6.74,0,0,1,.51-1.47,6.32,6.32,0,0,1,1-1.21,2.26,2.26,0,0,0-1.17,1.11A2.22,2.22,0,0,0,396.3,443.24Z" style="fill:#263238"></path><path d="M391.22,441s.28-.27.5-.66.38-.74.33-.76-.27.27-.5.66S391.17,441,391.22,441Z" style="fill:#263238"></path><path d="M389.83,440.32s.3-.15.57-.42.48-.52.44-.56-.3.15-.58.42S389.79,440.28,389.83,440.32Z" style="fill:#263238"></path><path d="M388.9,438.79a2,2,0,0,0,.88.07,2.13,2.13,0,0,0,.87-.13c0-.06-.39-.09-.88-.07S388.89,438.73,388.9,438.79Z" style="fill:#263238"></path><path d="M388.55,437.69a2.49,2.49,0,0,0,2,.06,5.57,5.57,0,0,0-1,0A5.76,5.76,0,0,0,388.55,437.69Z" style="fill:#263238"></path><path d="M391.73,439.49a2.84,2.84,0,0,0,1.08-.05,6.36,6.36,0,0,0,1.14-.31,3.62,3.62,0,0,0,.65-.29.66.66,0,0,0,.25-.35.42.42,0,0,0-.18-.42,2,2,0,0,0-2.43.69,1.9,1.9,0,0,0-.32.73.59.59,0,0,0,0,.29,3.1,3.1,0,0,1,.46-.94,1.92,1.92,0,0,1,.89-.64,1.7,1.7,0,0,1,1.29,0c.18.12.12.32-.06.45a3,3,0,0,1-.6.28,7.07,7.07,0,0,1-1.1.34C392.14,439.44,391.73,439.46,391.73,439.49Z" style="fill:#263238"></path><path d="M392,439.53a1,1,0,0,0,.09-.75,1.67,1.67,0,0,0-.33-.76,1.08,1.08,0,0,0-.92-.51.42.42,0,0,0-.31.51,1.12,1.12,0,0,0,.2.47,3.52,3.52,0,0,0,.54.63,1.53,1.53,0,0,0,.64.4s-.23-.18-.54-.51a3.71,3.71,0,0,1-.48-.62c-.16-.22-.28-.62,0-.68s.56.21.73.42a1.74,1.74,0,0,1,.34.68A4.61,4.61,0,0,1,392,439.53Z" style="fill:#263238"></path><path d="M373.75,439.24s.48-.07,1.24,0a5.32,5.32,0,0,1,2.76,1,5.46,5.46,0,0,1,1.81,2.29c.28.71.33,1.19.37,1.18a1.1,1.1,0,0,0,0-.34,4,4,0,0,0-.22-.89,5,5,0,0,0-1.82-2.4,5.25,5.25,0,0,0-2.87-1,4.56,4.56,0,0,0-.93.07A.91.91,0,0,0,373.75,439.24Z" style="fill:#263238"></path><path d="M375.18,432.22a28.43,28.43,0,0,0,0,3.43,28.12,28.12,0,0,0,.21,3.43,28.49,28.49,0,0,0,0-3.43A28.12,28.12,0,0,0,375.18,432.22Z" style="fill:#263238"></path><path d="M382,442.05a9.35,9.35,0,0,0,2.47.13,9.5,9.5,0,0,0,2.45-.3c0-.06-1.1.05-2.46.1S382,442,382,442.05Z" style="fill:#263238"></path><path d="M378.7,442.2s.1.22.23.47.19.46.25.46.08-.27-.07-.55S378.74,442.16,378.7,442.2Z" style="fill:#263238"></path><path d="M377.39,440.72s.08.21.26.38.36.27.4.23-.08-.21-.26-.38S377.43,440.68,377.39,440.72Z" style="fill:#263238"></path><path d="M375.58,440.1c0,.06.24,0,.49.12s.44.2.48.16-.11-.26-.42-.35S375.56,440.05,375.58,440.1Z" style="fill:#263238"></path><path d="M374.3,439.83c0,.05.08.13.23.18s.27,0,.29,0-.09-.13-.23-.18S374.32,439.78,374.3,439.83Z" style="fill:#263238"></path><path d="M427.72,388.82l-4.48-7.72-14.66,8.23L415,400.69l.94-.45c4.17-2.05,21.07-10.71,23.32-13C441.77,384.6,427.72,388.82,427.72,388.82Z" style="fill:#FF725E"></path><g style="opacity:0.5"><path d="M420.26,397.59a5.85,5.85,0,0,0-3.64-2,5.66,5.66,0,0,0-4,.87l2.31,4.06Z" style="fill:#fff"></path></g><g style="opacity:0.4"><path d="M434.71,387s5.07-1.2,4.94-.19S422.76,397.19,415,400.69l-.16-.34,19.63-10.78S433.87,387.48,434.71,387Z" style="fill:#fff"></path></g><path d="M414.61,400.47a1.12,1.12,0,0,0,.27-.11l.75-.36,2.73-1.38c2.3-1.19,5.45-2.86,8.89-4.79s6.51-3.73,8.72-5.07l2.61-1.61.7-.44.23-.17a1.56,1.56,0,0,0-.26.13l-.72.42-2.63,1.55c-2.23,1.3-5.31,3.09-8.75,5s-6.58,3.62-8.86,4.83l-2.7,1.44-.73.39Z" style="fill:#263238"></path><path d="M434.6,389.79a6.7,6.7,0,0,1-.22-1.53,6.6,6.6,0,0,1,.33-1.52,2.69,2.69,0,0,0-.11,3.05Z" style="fill:#263238"></path><path d="M429,390.05c.06,0,.12-.36.15-.82a1.86,1.86,0,0,0-.06-.82c-.06,0-.12.36-.15.81A1.89,1.89,0,0,0,429,390.05Z" style="fill:#263238"></path><path d="M427.49,390.09c.05,0,.2-.26.32-.63s.18-.68.13-.69-.2.26-.32.63S427.44,390.07,427.49,390.09Z" style="fill:#263238"></path><path d="M426,389.14a2.06,2.06,0,0,0,.82-.33c.42-.23.75-.46.72-.51s-.39.1-.82.33S425.93,389.09,426,389.14Z" style="fill:#263238"></path><path d="M425.15,388.32a1.74,1.74,0,0,0,1-.23,1.77,1.77,0,0,0,.82-.61,4.78,4.78,0,0,0-.9.43A5.12,5.12,0,0,0,425.15,388.32Z" style="fill:#263238"></path><path d="M428.81,388.5a3.33,3.33,0,0,0,.94-.53,7.26,7.26,0,0,0,.88-.78,3.76,3.76,0,0,0,.44-.56.58.58,0,0,0,.06-.42.41.41,0,0,0-.35-.29,2,2,0,0,0-1.85,1.7,1.93,1.93,0,0,0,0,.79.84.84,0,0,0,.12.27,3.17,3.17,0,0,1,0-1,2,2,0,0,1,.51-1,1.66,1.66,0,0,1,1.17-.55c.21,0,.25.23.14.42a3.42,3.42,0,0,1-.4.52,8.58,8.58,0,0,1-.83.8C429.15,388.27,428.79,388.47,428.81,388.5Z" style="fill:#263238"></path><path d="M429.08,388.41a1.07,1.07,0,0,0-.26-.71,1.77,1.77,0,0,0-.65-.53,1.08,1.08,0,0,0-1.05,0,.42.42,0,0,0-.05.59,1,1,0,0,0,.4.33,3,3,0,0,0,.77.32,1.56,1.56,0,0,0,.75.07s-.28-.06-.71-.21a4.13,4.13,0,0,1-.72-.34c-.24-.12-.53-.43-.32-.6a1,1,0,0,1,.85,0,1.75,1.75,0,0,1,.61.46A4.69,4.69,0,0,1,429.08,388.41Z" style="fill:#263238"></path><path d="M412.64,396.33s.4-.27,1.11-.57a5.54,5.54,0,0,1,2.91-.36,5.59,5.59,0,0,1,2.66,1.24c.58.5.84.9.87.88a1,1,0,0,0-.17-.29,4,4,0,0,0-.6-.69,5.19,5.19,0,0,0-2.72-1.34,5.41,5.41,0,0,0-3,.43,4.13,4.13,0,0,0-.79.48A1.22,1.22,0,0,0,412.64,396.33Z" style="fill:#263238"></path><path d="M410.72,389.44a28,28,0,0,0,1.57,3.05,28.31,28.31,0,0,0,1.76,3,31.82,31.82,0,0,0-1.58-3.05A29.41,29.41,0,0,0,410.72,389.44Z" style="fill:#263238"></path><path d="M421.3,395.14a14,14,0,0,0,4.31-2.36s-1,.55-2.15,1.2S421.27,395.09,421.3,395.14Z" style="fill:#263238"></path><path d="M418.42,396.75c0,.06.19.16.42.32s.38.33.43.29-.06-.27-.31-.45S418.43,396.7,418.42,396.75Z" style="fill:#263238"></path><path d="M416.58,396c0,.06.16.15.4.22s.44.08.46,0-.17-.16-.4-.22S416.59,396,416.58,396Z" style="fill:#263238"></path><path d="M414.68,396.28c0,.05.23-.07.49-.11s.48,0,.5-.07-.22-.19-.54-.13S414.64,396.25,414.68,396.28Z" style="fill:#263238"></path><path d="M413.41,396.61c0,.06.13.09.28.06s.27-.08.26-.13-.14-.09-.29-.07S413.4,396.56,413.41,396.61Z" style="fill:#263238"></path><polygon points="363.3 309.11 316.62 316.26 318.25 310.91 362.69 307.04 363.3 309.11" style="opacity:0.30000000000000004"></polygon><path d="M345.71,199.52a13.13,13.13,0,0,0-14.63,6c-1.92,3.47-2.12,7.68-4.09,11.12-1.4,2.44-3.59,4.32-5.35,6.52s-3.13,5-2.45,7.73c.64,2.56,3,4.68,2.76,7.3-.24,2.46-2.74,4.23-3.07,6.67-.39,2.88,2.56,5.33,5.49,5.57s5.72-1.08,8.36-2.35,5.46-2.55,8.37-2.24c3.4.36,6.14,2.77,9.19,4.27a18.48,18.48,0,0,0,19.82-2.62c2.08-1.83,3.81-4.57,3.08-7.22-.68-2.48-3.25-4-4.14-6.44-1.33-3.58,1.47-7.54.73-11.29-1-5-7.48-6.9-10.12-11.31-1.27-2.12-1.55-4.69-2.69-6.87s-3.83-4-6-2.89" style="fill:#263238"></path><path d="M351.23,245.58c-.47-1.78-.43-9.43-.43-9.43s6.74-1.35,6.54-8.25-2-22.71-2-22.71l-13-5-10,13.14,2.22,33.39Z" style="fill:#ffbe9d"></path><path d="M355.74,216.79a.88.88,0,0,1-.78,1,.89.89,0,0,1-.95-.8.87.87,0,1,1,1.73-.16Z" style="fill:#263238"></path><path d="M355.72,215.83c-.1.12-.79-.37-1.72-.34s-1.6.55-1.7.43,0-.27.33-.51a2.26,2.26,0,0,1,1.35-.5,2.31,2.31,0,0,1,1.38.42C355.66,215.56,355.77,215.77,355.72,215.83Z" style="fill:#263238"></path><path d="M345.42,217.67a.87.87,0,0,1-.78,1,.88.88,0,1,1,.78-1Z" style="fill:#263238"></path><path d="M345.4,216.76c-.1.12-.79-.37-1.72-.34s-1.6.55-1.7.43,0-.27.33-.51a2.26,2.26,0,0,1,1.35-.5,2.31,2.31,0,0,1,1.38.42C345.34,216.49,345.45,216.7,345.4,216.76Z" style="fill:#263238"></path><path d="M349.48,224.45a5.38,5.38,0,0,1,1.51-.34c.24,0,.46-.1.49-.27a1.44,1.44,0,0,0-.2-.74l-.82-1.91a33.79,33.79,0,0,1-1.87-5,35.48,35.48,0,0,1,2.24,4.82c.28.67.54,1.31.79,1.92a1.53,1.53,0,0,1,.18,1,.58.58,0,0,1-.37.38,1.31,1.31,0,0,1-.41.07A6.09,6.09,0,0,1,349.48,224.45Z" style="fill:#263238"></path><path d="M350.36,236.15a16.74,16.74,0,0,1-9.23-2.27s2.48,4.86,9.23,4Z" style="fill:#eb996e"></path><path d="M349.32,226.9a1.76,1.76,0,0,0-1.17-1.24,1.47,1.47,0,0,0-1.2.1,1,1,0,0,0-.48,1.06,1.17,1.17,0,0,0,1,.81,3.26,3.26,0,0,0,1.38-.19.86.86,0,0,0,.35-.16.33.33,0,0,0,.13-.34" style="fill:#eb996e"></path><path d="M346.83,224.6c-.06,0-.15.27-.09.71a2.47,2.47,0,0,0,2.54,2.05c.46,0,.7-.17.69-.23s-1.1,0-2-.72S347,224.59,346.83,224.6Z" style="fill:#263238"></path><path d="M355.8,204.39a8.33,8.33,0,0,1-7.73,7.83l1.59-4.25a19.64,19.64,0,0,1-5.34,5.48c-2.21,1.32-5.22,1.67-7.3.16-.51,1.73-.36,3.59-.82,5.34s-1.33,8.87-3.14,8.73-3.35-7.12-3.89-8.69a14.52,14.52,0,0,1,2.33-13,17.83,17.83,0,0,1,14.12-7.14,12.34,12.34,0,0,1,6.93,1.87,9.28,9.28,0,0,1,3.7,5" style="fill:#263238"></path><path d="M367.39,234.72a1.49,1.49,0,0,0,.47-.14,6.53,6.53,0,0,0,1.24-.63,9.06,9.06,0,0,0,3.37-3.78,8.5,8.5,0,0,0,.11-7.4,9.44,9.44,0,0,0-2.82-3.51,9,9,0,0,0-4.47-1.85,3.82,3.82,0,0,1-2.08-.8,3.33,3.33,0,0,1-.91-1.92c-.22-1.45.25-2.9.31-4.34a6.23,6.23,0,0,0-1.1-3.91,6.36,6.36,0,0,0-2.76-2.24c-1-.44-1.94-.7-2.74-1a10.84,10.84,0,0,1-2-.85,7,7,0,0,1-1.4-1.17,1.71,1.71,0,0,0,.26.41,4.47,4.47,0,0,0,1,.93,10.62,10.62,0,0,0,2,.95c.8.3,1.73.59,2.68,1a6.08,6.08,0,0,1,2.56,2.15,5.84,5.84,0,0,1,1,3.65c-.06,1.36-.56,2.82-.33,4.43a3.76,3.76,0,0,0,1.06,2.22,4.18,4.18,0,0,0,2.35.94,8.94,8.94,0,0,1,6.93,5.05,8.16,8.16,0,0,1,0,7,9.42,9.42,0,0,1-3.15,3.78C368,234.45,367.37,234.67,367.39,234.72Z" style="fill:#263238"></path><path d="M322.88,247.06s-.62-.35-1.7-1a9.52,9.52,0,0,1-3.7-3.7,5.42,5.42,0,0,1-.45-3.48,3.74,3.74,0,0,1,.87-1.73,9,9,0,0,1,1.7-1.32,4.77,4.77,0,0,0,2.24-4.18c-.06-1.79-1.29-3.19-1.81-4.75a6.62,6.62,0,0,1,.42-4.74,12,12,0,0,1,2.7-3.72c2.15-2.07,4.43-3.63,6-5.37a10.4,10.4,0,0,0,2.6-4.73,6.25,6.25,0,0,0,.13-1.47,1.77,1.77,0,0,0-.06-.51,12.48,12.48,0,0,1-.27,1.94,10.7,10.7,0,0,1-2.68,4.52c-1.52,1.68-3.8,3.19-6,5.28A12.29,12.29,0,0,0,320,222a7,7,0,0,0-.44,5.1c.58,1.7,1.75,3,1.79,4.61a4.32,4.32,0,0,1-2,3.78,8.4,8.4,0,0,0-1.76,1.4,4.07,4.07,0,0,0-.95,1.94,5.79,5.79,0,0,0,.54,3.73,7.55,7.55,0,0,0,2,2.4,12.26,12.26,0,0,0,1.94,1.31c.57.31,1,.52,1.33.66A2.62,2.62,0,0,0,322.88,247.06Z" style="fill:#263238"></path><path d="M356.63,212.6a5.62,5.62,0,0,1-2.16-2.94,16.45,16.45,0,0,1-.72-3.63c-.05-.36,0-.82.31-.94s.64.21.83.5a11.82,11.82,0,0,1,1.77,7.37l-.24-.19" style="fill:#263238"></path><path d="M332.71,203.85a5.33,5.33,0,0,0,.3-7.28,6,6,0,0,0-7.4-.9,5.14,5.14,0,0,0-2.28,3,5.2,5.2,0,0,0,.77,3.94,8.58,8.58,0,0,0,3,2.75,7.71,7.71,0,0,0,5.2,1.17,4.42,4.42,0,0,0,3.68-3.51" style="fill:#263238"></path><path d="M308.5,280.67l2.25-18c1.55-14.72,22-17.24,22-17.24L348.89,244s12.07-2.71,19.83,5.22c1.36,1.39,14.63,22.48,14.63,22.48L371.13,287l-7.85-14.66a17.09,17.09,0,0,1,2.87,7.9c.36,4.73-4.47,7.28-4.47,7.28L361.23,302,368,324.85l-52.82,1.82a51.63,51.63,0,0,1,6.14-22.5l-2.78-24.25Z" style="fill:#FF725E"></path><path d="M374.71,260.09a2.89,2.89,0,0,1-.3.64,6.05,6.05,0,0,1-1.35,1.52,9.74,9.74,0,0,1-7.13,1.81,21.3,21.3,0,0,1-5-1.3c-1.74-.64-3.54-1.44-5.5-2.06a25.18,25.18,0,0,0-13.19-.49c-4.64,1.05-8.49,3.66-12.44,5a16.39,16.39,0,0,1-5.84,1.06,13.43,13.43,0,0,1-5.05-1.14,13.81,13.81,0,0,1-5.76-4.66,9.53,9.53,0,0,1-1.29-2.41c.06,0,.41.89,1.45,2.29a14,14,0,0,0,5.75,4.44,13.21,13.21,0,0,0,4.91,1.05,16,16,0,0,0,5.66-1.08c3.87-1.37,7.73-4,12.5-5.1a25.37,25.37,0,0,1,13.44.54c2,.65,3.79,1.46,5.51,2.11a21.08,21.08,0,0,0,4.88,1.34,9.72,9.72,0,0,0,7-1.6A7.74,7.74,0,0,0,374.71,260.09Z" style="fill:#fafafa"></path><path d="M365.44,281.82s-.1.1-.32.26-.54.39-1,.64a20.78,20.78,0,0,1-3.94,1.82,23.21,23.21,0,0,1-14.16.29c-2.69-.83-5.07-2-7.31-2.86a17.76,17.76,0,0,0-6.15-1.36,9.93,9.93,0,0,0-4.16.72c-.93.39-1.38.74-1.41.69s.09-.1.31-.27a6.54,6.54,0,0,1,1-.61,9.72,9.72,0,0,1,4.25-.9,17.64,17.64,0,0,1,6.32,1.28c2.28.82,4.66,2,7.29,2.81a23.6,23.6,0,0,0,13.89-.14A35.33,35.33,0,0,0,365.44,281.82Z" style="fill:#fafafa"></path><path d="M329.63,259.11a4.35,4.35,0,0,0-.19,1.15c-.11.86-.24,1.91-.39,3.16-.33,2.78-.76,6.41-1.24,10.42s-.87,7.77-1.1,10.45c-.11,1.34-.18,2.42-.22,3.18a5.31,5.31,0,0,0,0,1.17,5,5,0,0,0,.19-1.16c.11-.85.24-1.91.39-3.15.33-2.79.76-6.42,1.24-10.43s.87-7.76,1.1-10.44c.11-1.34.18-2.43.22-3.18A5.31,5.31,0,0,0,329.63,259.11Z" style="fill:#263238"></path><path d="M308.16,279.76a93,93,0,0,0,9.75-.43,89.29,89.29,0,0,0,9.72-.95,96.39,96.39,0,0,0-9.75.43A92.39,92.39,0,0,0,308.16,279.76Z" style="fill:#263238"></path><path d="M365.52,277a14.68,14.68,0,0,0-.81-2.35c-.28-.72-.62-1.57-1-2.5-.21-.47-.43-1-.69-1.45-.13-.27-.3-.5-.39-.72a2.33,2.33,0,0,1-.15-.76,10.41,10.41,0,0,1,.13-1.66c.06-.54.12-1.07.17-1.58.1-1,.19-1.85.27-2.68a11.9,11.9,0,0,0,.12-2.48,11.76,11.76,0,0,0-.48,2.44c-.12.82-.25,1.71-.38,2.67-.07.5-.14,1-.21,1.57a10.57,10.57,0,0,0-.14,1.74,2.71,2.71,0,0,0,.19.93c.13.31.31.53.42.76.25.48.48,1,.7,1.41.4.88.77,1.7,1.12,2.45A10.36,10.36,0,0,0,365.52,277Z" style="fill:#263238"></path><g style="opacity:0.30000000000000004"><path d="M329.37,264c.08,9.94.37,19.09.91,29a7.6,7.6,0,0,1-3.84-.9C325.61,287.9,327.89,274.79,329.37,264Z"></path></g><path d="M307.33,295.93c.42-8.6,1.28-16,1.28-16l18.65-1.35s-1.53,11-.83,13.45c.61,2.15,36.85,1,46.28.43.53-.46,1.4.18,2.07-.5a7.13,7.13,0,0,0,1.46-2.07,11.23,11.23,0,0,0,1.08-3,1,1,0,0,1,1.76-.53c.44.77.2,3.46-1.4,6.16s3,1,4.68.44,7-2.12,7.57-1.74c.85.57.42,1.61-1.28,2.15s-6.67,2.52-6.32,3.41,8.87-2.2,8.87-2.2,1.72-1,2.16.06c.78,1.83-8.54,4.42-9.43,4.64-.62.16-.28,1.14.38.93s8.44-3.26,9.25-1.41c.63,1.43-7.64,2.2-8.9,3.75s6.21-1.24,6.75.15c.2.51-3,1-7.48,2a120.37,120.37,0,0,1-14.07,1.52c-10.55,1.34-47.91,4.83-55.94,4.85C304.56,311.1,307.18,298.88,307.33,295.93Z" style="fill:#ffbe9d"></path><path d="M338.89,211.18c-1.31,1.94-2.68,4.15-2.23,6.44.4,2,2.15,3.67,2,5.71-.15,2.34-2.76,4.06-2.72,6.4,0,2,1.82,3.33,3.13,4.79a10.63,10.63,0,0,1,2.74,7.72,9.23,9.23,0,0,1-4.07,7,8.27,8.27,0,0,1-8.08.51,11.44,11.44,0,0,1-4.92-5.87c-1.34-3.1-1.92-6.83-.21-9.75.69-1.19,1.75-2.24,1.9-3.6.2-1.72-1.14-3.24-1.46-4.94-.42-2.29,1-4.51,2.7-6.14s3.67-3,4.86-5" style="fill:#263238"></path><path d="M314.8,324.31s67.84-19.31,74.74-16.66,43.12,75.69,43.12,75.69l-24,12.35-31.3-62s-46.95,20.95-55.5,19.83S314.8,324.31,314.8,324.31Z" style="fill:#263238"></path><path d="M345.88,326.08c1.08.27,42.1,13.59,45.29,18.6s2.59,92.1,2.59,92.1l-22.66,1.65-4.2-77.06-45-7.88Z" style="fill:#263238"></path><path d="M321.65,353.69a4.37,4.37,0,0,0,.65-.13l1.83-.46c1.58-.41,3.87-1,6.69-1.84,5.63-1.62,13.37-4,21.77-7.06,4.2-1.54,8.16-3.12,11.73-4.63s6.73-3,9.34-4.32c1.31-.64,2.48-1.27,3.5-1.82s1.91-1,2.61-1.45l1.62-1a4.1,4.1,0,0,0,.55-.36,2.8,2.8,0,0,0-.6.27l-1.67.88c-.72.39-1.6.85-2.64,1.37s-2.21,1.13-3.54,1.75c-2.62,1.29-5.81,2.69-9.36,4.22s-7.53,3-11.72,4.58c-8.38,3-16.1,5.49-21.7,7.19l-6.64,2-1.8.55A2.86,2.86,0,0,0,321.65,353.69Z" style="fill:#455a64"></path><path d="M392.49,364.58a5.89,5.89,0,0,0,.12-1.32c0-.94.07-2.14.12-3.57s.07-3.34.11-5.31a23.62,23.62,0,0,0-.47-6.53,10.17,10.17,0,0,0-3.71-5.4,17.58,17.58,0,0,0-4.75-2.56,36.1,36.1,0,0,0-3.46-1.07,5.7,5.7,0,0,0-1.3-.27c0,.09,1.81.58,4.63,1.68a18.14,18.14,0,0,1,4.58,2.59,9.88,9.88,0,0,1,3.51,5.16,24.84,24.84,0,0,1,.49,6.39v5.31c0,1.43,0,2.63.05,3.58A7.44,7.44,0,0,0,392.49,364.58Z" style="fill:#455a64"></path><path d="M372.19,358.58a8.84,8.84,0,0,0-2.72,1.14,8.71,8.71,0,0,0-2.48,1.59,8.38,8.38,0,0,0,2.72-1.13A8.61,8.61,0,0,0,372.19,358.58Z" style="fill:#455a64"></path><path d="M370,356.36A29.54,29.54,0,0,0,368.4,359c-.93,1.43-1.9,2.44-1.8,2.55a8.15,8.15,0,0,0,3.42-5.22Z" style="fill:#455a64"></path><path d="M361.58,360.55s.08.18.37.32a2.64,2.64,0,0,0,1.34.22,13.94,13.94,0,0,1,1.88-.09,1.3,1.3,0,0,1,1.23,1.34,36.19,36.19,0,0,0,.72,6,33.61,33.61,0,0,0-.2-6,2.08,2.08,0,0,0-.52-1.25,1.84,1.84,0,0,0-1.18-.51,12.12,12.12,0,0,0-2,.2A3.26,3.26,0,0,1,361.58,360.55Z" style="fill:#263238"></path><polygon points="429.19 266.17 413.81 311.13 344.13 311.13 344.64 308.82 372.82 307.95 385.8 266.14 429.19 266.17" style="fill:#263238"></polygon><path d="M292.38,282.78c11.32.82,21.22,8.89,26.68,18.84s7.08,21.57,7.4,32.92a35,35,0,0,1,37.51,43L274.6,364.62Z" style="fill:#455a64"></path><path d="M401.53,374.51s0,.21-.16.62a17,17,0,0,1-.63,1.75,18.71,18.71,0,0,1-4.11,5.84,25.71,25.71,0,0,1-9.65,5.86,48.5,48.5,0,0,1-14.82,2.25c-5.57.09-11.65-.06-18.19-.09l-20.86-.2c-7.34-.11-15.07,0-23.06-.58s-16.29-1.83-24.23-5-15-8.05-19.76-14.6a43.39,43.39,0,0,1-7.77-21.55,57,57,0,0,1,2.14-20.72c.24-.79.48-1.56.72-2.33s.55-1.51.83-2.25c.54-1.49,1.16-2.9,1.71-4.32,1.14-2.81,2.23-5.51,3.31-8.07a117.26,117.26,0,0,1,6.6-13.48,66.11,66.11,0,0,1,6.56-9.24,63,63,0,0,1,5-5.15l1.39-1.24.49-.41-.45.45-1.36,1.28a67.76,67.76,0,0,0-4.89,5.2,65.66,65.66,0,0,0-6.46,9.26,117.52,117.52,0,0,0-6.52,13.47c-1.07,2.57-2.15,5.27-3.27,8.08-.55,1.41-1.17,2.84-1.7,4.32-.27.74-.54,1.48-.82,2.23s-.47,1.54-.71,2.32a56.79,56.79,0,0,0-2.07,20.55,42.87,42.87,0,0,0,7.7,21.3c4.69,6.45,11.71,11.32,19.55,14.42s16.12,4.38,24.07,5,15.68.49,23,.61l20.87.25c6.53.05,12.62.22,18.17.15a48.53,48.53,0,0,0,14.73-2.16,25.77,25.77,0,0,0,9.61-5.72,18.9,18.9,0,0,0,4.15-5.74,16.65,16.65,0,0,0,.68-1.73C401.45,374.71,401.53,374.51,401.53,374.51Z" style="fill:#263238"></path><path d="M329.34,399.56c-.15,0-.09-2.08-.38-4.61s-.8-4.53-.65-4.57a12.21,12.21,0,0,1,1.17,4.52A11.71,11.71,0,0,1,329.34,399.56Z" style="fill:#263238"></path><path d="M332.94,398c-.15,0,.23-1.78.28-4s-.22-3.93-.07-4a8.53,8.53,0,0,1,.59,4A8.64,8.64,0,0,1,332.94,398Z" style="fill:#263238"></path><path d="M292.58,377.36a19.59,19.59,0,0,0-2.72,3.86,19,19,0,0,0-1.21,4.56,8.66,8.66,0,0,1,3.93-8.42Z" style="fill:#263238"></path><path d="M288.24,376.59a9,9,0,0,0-4.63,6.89,2.32,2.32,0,0,1-.08-1.31A6.89,6.89,0,0,1,287,377,2.53,2.53,0,0,1,288.24,376.59Z" style="fill:#263238"></path><path d="M332.46,334.92c0,.1-1.54-.18-4-.24a31.3,31.3,0,0,0-4.33.23,34.32,34.32,0,0,0-5.2,1.09,34.67,34.67,0,0,0-4.93,2,31.41,31.41,0,0,0-3.73,2.22c-2,1.41-3.14,2.49-3.21,2.42s.23-.31.73-.8a20.61,20.61,0,0,1,2.26-1.92,28.29,28.29,0,0,1,3.73-2.35,32.54,32.54,0,0,1,5-2,31.81,31.81,0,0,1,5.29-1.07,26.93,26.93,0,0,1,4.41-.11,19.77,19.77,0,0,1,2.94.34A4,4,0,0,1,332.46,334.92Z" style="fill:#263238"></path></g><g id="freepik--character-1--inject-158"><path d="M52.37,439.81l9,.26L62,423.23l-13.15-.51-.11,1c-.42,4.64-1.8,23.61-1,26.74C48.66,454,52.37,439.81,52.37,439.81Z" style="fill:#FF725E"></path><g style="opacity:0.5"><path d="M48.72,428.83a5.82,5.82,0,0,0,3.66-2,5.6,5.6,0,0,0,1.36-3.89l-4.7-.16Z" style="fill:#fff"></path></g><g style="opacity:0.4"><path d="M50.31,446.74s-1.62,5-2.43,4.31-.13-19.88.92-28.33l.37,0-1,22.41S50.3,445.76,50.31,446.74Z" style="fill:#fff"></path></g><path d="M49.19,422.5a1.18,1.18,0,0,0,0,.28c0,.25,0,.53-.08.83q-.1,1.25-.24,3.06c-.18,2.58-.39,6.15-.53,10.1s-.19,7.52-.2,10.11c0,1.2,0,2.23,0,3.06,0,.31,0,.58,0,.83s0,.29,0,.29a.94.94,0,0,0,0-.29c0-.25,0-.52,0-.83,0-.83,0-1.86,0-3.06,0-2.59.11-6.16.25-10.11s.33-7.51.47-10.09q.11-1.81.18-3.06c0-.31,0-.58,0-.83A1.07,1.07,0,0,0,49.19,422.5Z" style="fill:#263238"></path><path d="M47.93,445.16a7.11,7.11,0,0,1,1.44.62,7.42,7.42,0,0,1,1.14,1.09,2.31,2.31,0,0,0-1-1.26A2.25,2.25,0,0,0,47.93,445.16Z" style="fill:#263238"></path><path d="M50.63,440.28c0,.05.24.3.62.55s.71.44.75.39-.25-.29-.63-.55S50.66,440.23,50.63,440.28Z" style="fill:#263238"></path><path d="M51.39,438.94s.13.31.38.61.49.51.53.48-.12-.31-.37-.61S51.44,438.91,51.39,438.94Z" style="fill:#263238"></path><path d="M53,438.14a2,2,0,0,0-.14.87,2.21,2.21,0,0,0,.06.89,2,2,0,0,0,.15-.88A1.88,1.88,0,0,0,53,438.14Z" style="fill:#263238"></path><path d="M54.15,437.88a1.69,1.69,0,0,0-.32,1,1.61,1.61,0,0,0,.1,1,6.66,6.66,0,0,0,.1-1A6,6,0,0,0,54.15,437.88Z" style="fill:#263238"></path><path d="M52.07,440.9A3.56,3.56,0,0,0,52,442a6.64,6.64,0,0,0,.22,1.16,3,3,0,0,0,.24.67.62.62,0,0,0,.33.28.43.43,0,0,0,.44-.15,2,2,0,0,0-.49-2.48,2.17,2.17,0,0,0-.71-.38c-.19,0-.29,0-.3,0a2.62,2.62,0,0,1,.91.52,2,2,0,0,1,.57.95,1.68,1.68,0,0,1-.13,1.28c-.14.17-.34.1-.44-.1a2.57,2.57,0,0,1-.24-.62,6.22,6.22,0,0,1-.25-1.12C52.09,441.32,52.11,440.9,52.07,440.9Z" style="fill:#263238"></path><path d="M52,441.18a1,1,0,0,0,.75.15,1.7,1.7,0,0,0,.8-.26,1.08,1.08,0,0,0,.58-.89.43.43,0,0,0-.49-.35,1.42,1.42,0,0,0-.49.17,3.42,3.42,0,0,0-.67.49,1.66,1.66,0,0,0-.46.6s.2-.21.56-.49a3.14,3.14,0,0,1,.66-.43c.24-.14.65-.23.69,0s-.26.54-.48.7a1.82,1.82,0,0,1-.72.28A3.13,3.13,0,0,1,52,441.18Z" style="fill:#263238"></path><path d="M53.79,423s0,.49-.09,1.24A5.3,5.3,0,0,1,50,428.53c-.73.23-1.22.24-1.22.28a1.17,1.17,0,0,0,.34,0,4.52,4.52,0,0,0,.92-.15,5.29,5.29,0,0,0,2.57-1.62,5.14,5.14,0,0,0,1.2-2.79,4.07,4.07,0,0,0,0-.92A1.09,1.09,0,0,0,53.79,423Z" style="fill:#263238"></path><path d="M60.73,425a31.64,31.64,0,0,0-3.45-.26,29.73,29.73,0,0,0-3.46-.07,27.58,27.58,0,0,0,3.45.27A28.32,28.32,0,0,0,60.73,425Z" style="fill:#263238"></path><path d="M50.28,431a13.88,13.88,0,0,0-.22,4.92c.06,0,0-1.1.1-2.46S50.34,431,50.28,431Z" style="fill:#263238"></path><path d="M50.41,427.71s-.24.08-.5.18-.48.16-.48.22.27.09.56,0S50.44,427.74,50.41,427.71Z" style="fill:#263238"></path><path d="M52,426.52s-.22.06-.4.23-.3.33-.26.37.21-.06.4-.22S52,426.56,52,426.52Z" style="fill:#263238"></path><path d="M52.77,424.76c-.06,0-.07.24-.16.48s-.24.42-.2.46.27-.08.39-.39S52.82,424.75,52.77,424.76Z" style="fill:#263238"></path><path d="M53.15,423.51c-.06,0-.15.07-.21.21s-.06.26,0,.29.14-.08.2-.21S53.2,423.53,53.15,423.51Z" style="fill:#263238"></path><path d="M96.89,369.47l4.31,7.9,14.84-8-6.19-11.62-.95.44c-4.22,2-21.3,10.33-23.59,12.63C82.75,373.41,96.89,369.47,96.89,369.47Z" style="fill:#FF725E"></path><g style="opacity:0.5"><path d="M104.53,360.78a5.85,5.85,0,0,0,3.6,2.15,5.65,5.65,0,0,0,4.05-.79L110,358Z" style="fill:#fff"></path></g><g style="opacity:0.4"><path d="M89.86,371.18s-5.1,1.1-4.94.07,17.11-10.12,24.93-13.48l.16.35L90.15,368.56S90.71,370.68,89.86,371.18Z" style="fill:#fff"></path></g><path d="M110.24,358l-.27.11-.75.35-2.76,1.33c-2.32,1.14-5.51,2.76-9,4.63s-6.6,3.62-8.83,4.92L86,370.9l-.71.44-.24.16a1,1,0,0,0,.26-.12L86,371l2.67-1.5c2.25-1.27,5.37-3,8.85-4.87s6.66-3.51,9-4.68l2.73-1.39.74-.38C110.16,358.06,110.25,358,110.24,358Z" style="fill:#263238"></path><path d="M90,368.33a7.45,7.45,0,0,1,.19,1.56,6.18,6.18,0,0,1-.37,1.52,2.71,2.71,0,0,0,.18-3.08Z" style="fill:#263238"></path><path d="M95.6,368.2a1.84,1.84,0,0,0-.16.82,2,2,0,0,0,0,.84c.06,0,.13-.37.16-.82S95.66,368.2,95.6,368.2Z" style="fill:#263238"></path><path d="M97.15,368.19c-.06,0-.21.26-.34.63s-.2.68-.14.7.2-.26.33-.63S97.2,368.21,97.15,368.19Z" style="fill:#263238"></path><path d="M98.66,369.18a2.09,2.09,0,0,0-.83.32c-.43.23-.76.45-.73.5a2,2,0,0,0,.82-.32C98.36,369.46,98.68,369.23,98.66,369.18Z" style="fill:#263238"></path><path d="M99.45,370a1.76,1.76,0,0,0-1,.21,1.78,1.78,0,0,0-.83.6,4.9,4.9,0,0,0,.91-.41A5,5,0,0,0,99.45,370Z" style="fill:#263238"></path><path d="M95.79,369.76a3.39,3.39,0,0,0-1,.52,7.13,7.13,0,0,0-.89.77,3.15,3.15,0,0,0-.45.55.61.61,0,0,0-.08.43.43.43,0,0,0,.35.3,2,2,0,0,0,1.89-1.67,2.27,2.27,0,0,0,0-.81.64.64,0,0,0-.12-.27,3,3,0,0,1,0,1.05,1.92,1.92,0,0,1-.53,1,1.66,1.66,0,0,1-1.17.53c-.22,0-.25-.24-.14-.43a2.59,2.59,0,0,1,.42-.52,6.47,6.47,0,0,1,.84-.78C95.45,370,95.81,369.79,95.79,369.76Z" style="fill:#263238"></path><path d="M95.52,369.85a1,1,0,0,0,.25.72,1.75,1.75,0,0,0,.63.56,1.09,1.09,0,0,0,1.06.06.43.43,0,0,0,.05-.6,1,1,0,0,0-.39-.34,3,3,0,0,0-.76-.33,1.54,1.54,0,0,0-.75-.1s.28.07.71.23a3.9,3.9,0,0,1,.7.36c.24.13.53.45.31.62a1,1,0,0,1-.84-.07,1.78,1.78,0,0,1-.61-.48A4.1,4.1,0,0,1,95.52,369.85Z" style="fill:#263238"></path><path d="M112.12,362.23s-.4.26-1.11.55a5.49,5.49,0,0,1-2.93.29,5.42,5.42,0,0,1-2.63-1.31c-.56-.51-.82-.93-.85-.91a.88.88,0,0,0,.16.3,4.82,4.82,0,0,0,.59.72,5.16,5.16,0,0,0,5.71,1,4.53,4.53,0,0,0,.81-.46C112,362.32,112.13,362.24,112.12,362.23Z" style="fill:#263238"></path><path d="M113.9,369.23a28,28,0,0,0-1.51-3.12,28.66,28.66,0,0,0-1.69-3,31.53,31.53,0,0,0,1.51,3.12A28.66,28.66,0,0,0,113.9,369.23Z" style="fill:#263238"></path><path d="M103.44,363.23a9.63,9.63,0,0,0-2.28.95,9.15,9.15,0,0,0-2.07,1.34c0,.05,1-.53,2.17-1.16S103.47,363.29,103.44,363.23Z" style="fill:#263238"></path><path d="M106.36,361.67c0-.05-.19-.16-.41-.33s-.38-.34-.43-.3,0,.27.3.46S106.34,361.73,106.36,361.67Z" style="fill:#263238"></path><path d="M108.18,362.45c0-.05-.16-.16-.39-.23s-.45-.09-.46,0,.16.15.4.23S108.17,362.5,108.18,362.45Z" style="fill:#263238"></path><path d="M110.09,362.23s-.24.06-.49.11-.48,0-.5.06.21.19.53.14S110.13,362.27,110.09,362.23Z" style="fill:#263238"></path><path d="M111.36,361.93c0-.06-.13-.09-.28-.07s-.26.08-.26.13.14.09.29.07S111.37,362,111.36,361.93Z" style="fill:#263238"></path><path d="M185.36,418.6S148.28,407.42,145,404.51s-29.15-41.91-29.15-41.91l-21.5,13.1s30,42,32.08,44.18,29.14,14.51,29.14,14.51Z" style="fill:#263238"></path><path d="M231.73,414c-1.09-.73-21.43-8.1-33.89-4.37-5.19,1.55-13.67,7.8-13.67,7.8s-55.82,5.55-65.66,4.46-61.5-.06-61.5-.06L54.7,443.64l174.13.72Z" style="fill:#263238"></path><path d="M190.49,413.21a2.88,2.88,0,0,1-.45.47,16.21,16.21,0,0,1-1.44,1.19,16.85,16.85,0,0,1-6.19,2.9h0c-2.81.35-6.15.73-9.87,1.09-1.85.17-3.82.33-5.85.39s-4.11.21-6.26.37l-22.11,1.84c-2.83.22-5.12.36-6.71.44l-1.83.08a2.84,2.84,0,0,1-.64,0,3,3,0,0,1,.63-.1l1.82-.17,6.7-.61c5.66-.51,13.46-1.32,22.11-2,2.14-.16,4.24-.29,6.27-.36s4-.2,5.83-.36c3.71-.33,7.06-.68,9.87-1h0a17.3,17.3,0,0,0,6.15-2.71c.67-.45,1.16-.84,1.49-1.1A3.65,3.65,0,0,1,190.49,413.21Z" style="fill:#455a64"></path><path d="M58.37,443c-.14,0,.22-4.75.8-10.56s1.18-10.52,1.32-10.51a103.47,103.47,0,0,1-.8,10.56A103.49,103.49,0,0,1,58.37,443Z" style="fill:#455a64"></path><path d="M127.92,431a18.85,18.85,0,0,1,.26-4.41,19.2,19.2,0,0,1,.76-4.35,18.5,18.5,0,0,1-.25,4.41A18.25,18.25,0,0,1,127.92,431Z" style="fill:#455a64"></path><path d="M132.88,432.29a18,18,0,0,1-2.18-5,17.62,17.62,0,0,1-1.06-5.37c.15,0,.66,2.36,1.56,5.21S133,432.22,132.88,432.29Z" style="fill:#455a64"></path><path d="M119,367.43a3.94,3.94,0,0,1-.79.58c-.52.34-1.29.81-2.25,1.37-1.93,1.13-4.64,2.6-7.71,4.06s-5.93,2.63-8,3.41c-1,.39-1.9.69-2.49.88a3.14,3.14,0,0,1-.94.24,30.17,30.17,0,0,1,3.29-1.46c2.05-.87,4.87-2.09,7.93-3.54s5.79-2.87,7.76-3.91A30,30,0,0,1,119,367.43Z" style="fill:#455a64"></path><path d="M138.44,410.05a17.32,17.32,0,0,1,6.45-5.52,37.49,37.49,0,0,1-3.23,2.75A36,36,0,0,1,138.44,410.05Z" style="fill:#455a64"></path><path d="M142.24,411.82a15,15,0,0,1,1.09-3.76,14.85,14.85,0,0,1,1.58-3.59,15.55,15.55,0,0,1-1.09,3.77A14.89,14.89,0,0,1,142.24,411.82Z" style="fill:#455a64"></path><path d="M215.49,440a3.41,3.41,0,0,1-1.87.3,6.48,6.48,0,0,1-6.22-5.92,3.47,3.47,0,0,1,.21-1.9c.09,0,0,.73.16,1.85a6.59,6.59,0,0,0,5.87,5.6C214.77,440.1,215.48,440,215.49,440Z" style="fill:#455a64"></path><ellipse cx="56.98" cy="433.85" rx="1" ry="0.26" style="fill:#455a64"></ellipse><path d="M62,433.85c0,.14-.44.26-1,.26s-1-.12-1-.26.45-.26,1-.26S62,433.7,62,433.85Z" style="fill:#455a64"></path><path d="M66,433.85c0,.14-.44.26-1,.26s-1-.12-1-.26.45-.26,1-.26S66,433.7,66,433.85Z" style="fill:#455a64"></path><path d="M70,433.85c0,.14-.44.26-1,.26s-1-.12-1-.26.45-.26,1-.26S70,433.7,70,433.85Z" style="fill:#455a64"></path><path d="M74,433.85c0,.14-.44.26-1,.26s-1-.12-1-.26.45-.26,1-.26S74,433.7,74,433.85Z" style="fill:#455a64"></path><path d="M78,433.85c0,.14-.44.26-1,.26s-1-.12-1-.26.45-.26,1-.26S78,433.7,78,433.85Z" style="fill:#455a64"></path><path d="M82,433.85c0,.14-.44.26-1,.26s-1-.12-1-.26.45-.26,1-.26S82,433.7,82,433.85Z" style="fill:#455a64"></path><path d="M86,433.85c0,.14-.45.26-1,.26s-1-.12-1-.26.45-.26,1-.26S86,433.7,86,433.85Z" style="fill:#455a64"></path><path d="M90,433.85c0,.14-.45.26-1,.26s-1-.12-1-.26.45-.26,1-.26S90,433.7,90,433.85Z" style="fill:#455a64"></path><ellipse cx="93" cy="433.85" rx="1" ry="0.26" style="fill:#455a64"></ellipse><path d="M98,433.85c0,.14-.45.26-1,.26s-1-.12-1-.26.45-.26,1-.26S98,433.7,98,433.85Z" style="fill:#455a64"></path><path d="M102,433.85c0,.14-.45.26-1,.26s-1-.12-1-.26.45-.26,1-.26S102,433.7,102,433.85Z" style="fill:#455a64"></path><path d="M106,433.85c0,.14-.44.26-1,.26s-1-.12-1-.26.44-.26,1-.26S106,433.7,106,433.85Z" style="fill:#455a64"></path><path d="M110,433.85c0,.14-.45.26-1,.26s-1-.12-1-.26.45-.26,1-.26S110,433.7,110,433.85Z" style="fill:#455a64"></path><path d="M114,433.85c0,.14-.45.26-1,.26s-1-.12-1-.26.45-.26,1-.26S114,433.7,114,433.85Z" style="fill:#455a64"></path><path d="M118,433.85c0,.14-.44.26-1,.26s-1-.12-1-.26.45-.26,1-.26S118,433.7,118,433.85Z" style="fill:#455a64"></path><path d="M122,433.85c0,.14-.44.26-1,.26s-1-.12-1-.26.45-.26,1-.26S122,433.7,122,433.85Z" style="fill:#455a64"></path><ellipse cx="124.97" cy="433.85" rx="1" ry="0.26" style="fill:#455a64"></ellipse><path d="M130,433.85c0,.14-.44.26-1,.26s-1-.12-1-.26.45-.26,1-.26S130,433.7,130,433.85Z" style="fill:#455a64"></path><ellipse cx="132.97" cy="433.85" rx="1" ry="0.26" style="fill:#455a64"></ellipse><ellipse cx="136.97" cy="433.85" rx="1" ry="0.26" style="fill:#455a64"></ellipse><path d="M142,433.85c0,.14-.45.26-1,.26s-1-.12-1-.26.45-.26,1-.26S142,433.7,142,433.85Z" style="fill:#455a64"></path><path d="M146,433.85c0,.14-.45.26-1,.26s-1-.12-1-.26.45-.26,1-.26S146,433.7,146,433.85Z" style="fill:#455a64"></path><path d="M150,433.85c0,.14-.45.26-1,.26s-1-.12-1-.26.45-.26,1-.26S150,433.7,150,433.85Z" style="fill:#455a64"></path><ellipse cx="152.97" cy="433.85" rx="1" ry="0.26" style="fill:#455a64"></ellipse><ellipse cx="156.97" cy="433.85" rx="1" ry="0.26" style="fill:#455a64"></ellipse><path d="M162,433.85c0,.14-.45.26-1,.26s-1-.12-1-.26.45-.26,1-.26S162,433.7,162,433.85Z" style="fill:#455a64"></path><path d="M166,433.85c0,.14-.45.26-1,.26s-1-.12-1-.26.45-.26,1-.26S166,433.7,166,433.85Z" style="fill:#455a64"></path><path d="M170,433.85c0,.14-.45.26-1,.26s-1-.12-1-.26.45-.26,1-.26S170,433.7,170,433.85Z" style="fill:#455a64"></path><ellipse cx="172.97" cy="433.85" rx="1" ry="0.26" style="fill:#455a64"></ellipse><path d="M178,433.85c0,.14-.45.26-1,.26s-1-.12-1-.26.45-.26,1-.26S178,433.7,178,433.85Z" style="fill:#455a64"></path><path d="M182,433.85c0,.14-.45.26-1,.26s-1-.12-1-.26.45-.26,1-.26S182,433.7,182,433.85Z" style="fill:#455a64"></path><ellipse cx="184.97" cy="433.85" rx="1" ry="0.26" style="fill:#455a64"></ellipse><path d="M190,433.85c0,.14-.45.26-1,.26s-1-.12-1-.26.45-.26,1-.26S190,433.7,190,433.85Z" style="fill:#455a64"></path><path d="M194,433.85c0,.14-.45.26-1,.26s-1-.12-1-.26.45-.26,1-.26S194,433.7,194,433.85Z" style="fill:#455a64"></path><path d="M198,433.85c0,.14-.45.26-1,.26s-1-.12-1-.26.45-.26,1-.26S198,433.7,198,433.85Z" style="fill:#455a64"></path><path d="M202,433.85c0,.14-.45.26-1,.26s-1-.12-1-.26.45-.26,1-.26S202,433.7,202,433.85Z" style="fill:#455a64"></path><ellipse cx="204.95" cy="433.85" rx="1" ry="0.26" style="fill:#455a64"></ellipse><ellipse cx="208.95" cy="433.85" rx="1" ry="0.26" style="fill:#455a64"></ellipse><ellipse cx="212.95" cy="433.85" rx="1" ry="0.26" style="fill:#455a64"></ellipse><path d="M216,433.85c0,.14,0,.26,0,.26s0-.12,0-.26,0-.26,0-.26S216,433.7,216,433.85Z" style="fill:#455a64"></path><path d="M108.15,376.4c-.11.08-.47-.22-.79-.67s-.48-.88-.36-1,.47.22.79.67S108.27,376.31,108.15,376.4Z" style="fill:#455a64"></path><path d="M110.46,379.66c-.11.09-.47-.21-.79-.66s-.48-.89-.36-1,.47.22.79.67S110.58,379.58,110.46,379.66Z" style="fill:#455a64"></path><path d="M112.77,382.93c-.11.08-.47-.22-.79-.67s-.48-.88-.36-1,.47.21.79.66S112.89,382.85,112.77,382.93Z" style="fill:#455a64"></path><path d="M115.08,386.19c-.11.09-.47-.21-.79-.66s-.48-.89-.36-1,.47.22.79.67S115.2,386.11,115.08,386.19Z" style="fill:#455a64"></path><path d="M117.39,389.46c-.11.08-.47-.22-.79-.67s-.48-.88-.36-1,.47.21.79.66S117.51,389.38,117.39,389.46Z" style="fill:#455a64"></path><path d="M119.7,392.72c-.11.09-.47-.21-.79-.66s-.48-.89-.36-1,.47.22.79.67S119.82,392.64,119.7,392.72Z" style="fill:#455a64"></path><path d="M122,396c-.11.08-.47-.22-.79-.67s-.48-.88-.36-1,.47.21.79.66S122.13,395.91,122,396Z" style="fill:#455a64"></path><path d="M124.32,399.26c-.11.08-.47-.22-.79-.67s-.48-.88-.36-1,.47.22.79.67S124.44,399.17,124.32,399.26Z" style="fill:#455a64"></path><path d="M126.63,402.52c-.11.08-.47-.21-.79-.67s-.48-.88-.36-1,.47.21.79.66S126.75,402.44,126.63,402.52Z" style="fill:#455a64"></path><path d="M128.94,405.79c-.11.08-.47-.22-.79-.67s-.48-.88-.36-1,.47.22.79.67S129.06,405.7,128.94,405.79Z" style="fill:#455a64"></path><path d="M131.26,409.05c-.12.08-.48-.21-.8-.66s-.48-.89-.36-1,.47.21.79.66S131.37,409,131.26,409.05Z" style="fill:#455a64"></path><path d="M133.57,412.31c-.11.09-.47-.21-.79-.66s-.49-.88-.37-1,.47.22.79.67S133.69,412.23,133.57,412.31Z" style="fill:#455a64"></path><path d="M136,415.46c-.11.09-.48-.18-.84-.61s-.54-.85-.43-.94.49.19.84.61S136.15,415.36,136,415.46Z" style="fill:#455a64"></path><path d="M138.91,418.24c-.09.11-.5-.1-.92-.47s-.68-.75-.58-.85.52.1.92.46S139,418.12,138.91,418.24Z" style="fill:#455a64"></path><path d="M142.36,420.23c-.05.14-.5,0-1-.19s-.86-.55-.79-.67.53,0,1,.2S142.41,420.1,142.36,420.23Z" style="fill:#455a64"></path><path d="M276.58,395.92l16.88-.13s4.47,35.45,11.19,38.61C317.92,440.64,335,436.78,338,436c.5-.39,1.06-.85,1.67-1.38a7.59,7.59,0,0,0,1.65-2,11.67,11.67,0,0,0,1.32-3,1,1,0,0,1,1.87-.43c.4.83,0,3.6-1.86,6.28s3.05,1.27,4.85.79,7.41-1.71,8-1.27c.86.65.34,1.69-1.47,2.13s-7.11,2.14-6.81,3.08,9.4-1.64,9.4-1.64,1.85-.87,2.24.21c.69,1.95-9.19,4-10.13,4.14-.66.11-.37,1.15.33,1s9-2.78,9.74-.8c.56,1.51-8.11,1.73-9.52,3.24s6.55-.84,7,.63c.18.55.23,1-4.54,1.66a109,109,0,0,1-12,.47c-5.3.75-47,6-53.58-10.74C278.76,419.49,276.58,395.92,276.58,395.92Z" style="fill:#eb996e"></path><path d="M295.37,393.16l5.09,20.5-26,8.15s-2.59-29.11,1.72-34.14c4.06-4.73,9.36-6.15,14.34-2.24A14.05,14.05,0,0,1,295.37,393.16Z" style="fill:#FF725E"></path><path d="M295.37,393.16l5.09,20.5-26,8.15s-2.59-29.11,1.72-34.14c4.06-4.73,9.36-6.15,14.34-2.24A14.05,14.05,0,0,1,295.37,393.16Z" style="opacity:0.30000000000000004"></path><path d="M280.05,362.38a1.58,1.58,0,0,1-.6,1.6,1.6,1.6,0,0,1-1.71.07c-1-.59-1-2-.73-3.12s.75-2.29.36-3.37a7.76,7.76,0,0,0-1.62-2.06,5,5,0,0,1-1.07-4.29,4.16,4.16,0,0,1,3.1-3.06c1.53-.31,3.35.28,4.54-.72.87-.73,1-2,1.71-2.91,1.08-1.39,3.15-1.47,4.87-1.11s3.45,1,5.18.75c1.45-.25,2.69-1.15,4.06-1.67a7.7,7.7,0,0,1,9.23,11.27,4.94,4.94,0,0,1-2.55,2.18" style="fill:#263238"></path><path d="M278,392.19l16.6.79c.34-1.9,1.16-9.34,1.16-9.34s7-.19,7.92-7S305.46,354,305.46,354h0a23.93,23.93,0,0,0-24.24-.05l-1.12.65Z" style="fill:#ffbe9d"></path><path d="M302.67,364.91a1,1,0,0,1,.89-1.79,1,1,0,1,1-.89,1.79Z" style="fill:#263238"></path><path d="M304.13,363.48c-.07.15-.86-.17-1.78.08s-1.44.92-1.58.83,0-.28.21-.58a2.34,2.34,0,0,1,2.68-.72C304,363.24,304.17,363.42,304.13,363.48Z" style="fill:#263238"></path><path d="M293.15,362.46a1,1,0,1,1-1.23.7A1,1,0,0,1,293.15,362.46Z" style="fill:#263238"></path><path d="M293.81,363c-.07.14-.86-.17-1.77.08s-1.44.92-1.58.83,0-.27.21-.57a2.3,2.3,0,0,1,1.21-.81,2.4,2.4,0,0,1,1.46.07C293.69,362.75,293.85,362.93,293.81,363Z" style="fill:#263238"></path><path d="M296.7,371.93a4.37,4.37,0,0,1,1.56-.13c.25,0,.45,0,.49-.16a1.35,1.35,0,0,0-.09-.72c-.16-.66-.33-1.32-.5-2a27,27,0,0,1-1-5.23,26,26,0,0,1,1.49,5.1l.46,2a1.54,1.54,0,0,1,0,1,.65.65,0,0,1-.48.34,1.46,1.46,0,0,1-.42,0A4.85,4.85,0,0,1,296.7,371.93Z" style="fill:#263238"></path><path d="M293.51,372.58a17.74,17.74,0,0,0,4.44,1.93,2.62,2.62,0,0,1-3.2.64C292.8,374.14,293.51,372.58,293.51,372.58Z" style="fill:#fff"></path><path d="M295.78,383.54a16,16,0,0,1-8.59-3.67s1.48,5.19,8.38,5.45Z" style="fill:#eb996e"></path><path d="M305.38,355.7s-4.29,1.81-9.59-1.2c-3.48-2-7.6-3.07-8.56-2.4s-1.35,4.34-4.94,5.23c0,0-.14,7-2.92,6.64s-.46-11.19-.46-11.19l7-3,7.56-1,7,1.37,5.37,1.78Z" style="fill:#263238"></path><path d="M305.11,343.4s.08.12.18.37a4.41,4.41,0,0,1,.3,1.16,6.93,6.93,0,0,1-.83,4.28,6.72,6.72,0,0,1-2,2.29,5.75,5.75,0,0,1-3.36,1.07,3.68,3.68,0,0,1-3.36-1.92,3.31,3.31,0,0,1-.2-2.13,2.46,2.46,0,0,1,1.37-1.76,2.33,2.33,0,0,1,2.22.22,3.26,3.26,0,0,1,1.32,1.68,3.45,3.45,0,0,1-1.22,3.66,5.37,5.37,0,0,1-3.3,1.25,10.31,10.31,0,0,1-3-.34c-1.79-.46-3.18-1-4.18-1.15s-1.56-.24-1.56-.29a1.45,1.45,0,0,1,.41,0,10,10,0,0,1,1.19.12c1,.14,2.46.59,4.23,1a10.08,10.08,0,0,0,2.91.27,4.93,4.93,0,0,0,3-1.18,3,3,0,0,0,1.06-3.13,2.73,2.73,0,0,0-1.12-1.41,1.79,1.79,0,0,0-1.73-.18,1.93,1.93,0,0,0-1.08,1.4,2.84,2.84,0,0,0,.16,1.8,3.22,3.22,0,0,0,2.91,1.65,5.31,5.31,0,0,0,3.1-.94,6.64,6.64,0,0,0,2-2.12,6.92,6.92,0,0,0,.94-4.08C305.29,344,305.06,343.42,305.11,343.4Z" style="fill:#fafafa"></path><path d="M280,361.75c-.11-.06-4.52-2-5,2.7s4.35,4.17,4.37,4S280,361.75,280,361.75Z" style="fill:#ffbe9d"></path><path d="M278.19,366.58s-.09.05-.23.1a.82.82,0,0,1-.62-.05,2,2,0,0,1-.76-1.9,2.77,2.77,0,0,1,.34-1.15,1,1,0,0,1,.68-.57.42.42,0,0,1,.46.27c.05.14,0,.23,0,.24s.11-.07.09-.27a.52.52,0,0,0-.15-.31.66.66,0,0,0-.44-.16,1.14,1.14,0,0,0-.93.65,2.72,2.72,0,0,0-.4,1.28,2.1,2.1,0,0,0,1,2.13.86.86,0,0,0,.76,0C278.17,366.69,278.2,366.59,278.19,366.58Z" style="fill:#eb996e"></path><path d="M278.72,346.87c0-.14.78-.37,1.69.05s1.26,1.18,1.13,1.24-.59-.43-1.35-.77S278.74,347,278.72,346.87Z" style="fill:#263238"></path><path d="M281.75,344.26c.16,0,0,1,.11,2.16s.49,2,.36,2.11-.8-.77-.88-2.07A3.29,3.29,0,0,1,281.75,344.26Z" style="fill:#263238"></path><path d="M299.86,362c-.12-.25.85-.9,2.21-.79s2.21.91,2,1.14-1,0-2.13-.1S300,362.31,299.86,362Z" style="fill:#263238"></path><path d="M289.49,359.82c-.12-.25.85-.9,2.21-.78s2.21.91,2,1.14-1,0-2.13-.1S289.6,360.1,289.49,359.82Z" style="fill:#263238"></path><path d="M282,431.57C268.1,449.43,215.75,445,215.75,445s.58-31.78,2-35.78c.65-1.78,12.44,1.2,20.45-.62,3.41-.77,18.22-13.67,26.45-21.18a16.08,16.08,0,0,1,18-2.55,85.71,85.71,0,0,1,9.71,5.73,6.65,6.65,0,0,1,2.94,5.69h0a56.61,56.61,0,0,1-10.69,31.69Z" style="fill:#FF725E"></path><g style="opacity:0.30000000000000004"><path d="M266.5,390c-3.74,11.91-4.77,24.56-3.54,33.36a4.48,4.48,0,0,0,1.08,2.76c1.09,1,2.83.76,4.25.32s3-1,4.35-.39A46.37,46.37,0,0,0,276,438.22l1.95-1.53c.66.54.42,2.77,1.11,2.29l5.09-3-12.27-48.64Z"></path></g><path d="M268.07,395.92l16.88-.13s4.46,35.45,11.19,38.61c13.26,6.24,30.36,2.38,33.36,1.63.5-.39,1.06-.85,1.67-1.38a7.63,7.63,0,0,0,1.66-2,12.4,12.4,0,0,0,1.32-3,1,1,0,0,1,1.86-.43c.41.83,0,3.6-1.85,6.28s3,1.27,4.84.79,7.42-1.71,8-1.27c.86.65.34,1.69-1.46,2.13s-7.12,2.14-6.82,3.08,9.4-1.64,9.4-1.64,1.86-.87,2.24.21c.69,1.95-9.18,4-10.13,4.14-.66.11-.36,1.15.33,1s9-2.78,9.75-.8c.55,1.51-8.11,1.73-9.53,3.24s6.55-.84,7,.63c.18.55.24,1-4.54,1.66a108.72,108.72,0,0,1-12,.47c-5.31.75-47,6-53.58-10.74C270.24,419.49,268.07,395.92,268.07,395.92Z" style="fill:#ffbe9d"></path><path d="M286.85,393.16l5.1,20.5-26,8.15s-2.6-29.11,1.71-34.14c4.06-4.73,9.37-6.15,14.35-2.24A14.09,14.09,0,0,1,286.85,393.16Z" style="fill:#FF725E"></path><path d="M272.67,384.71a3.1,3.1,0,0,1,.64-.18,16.56,16.56,0,0,1,1.88-.3,11.5,11.5,0,0,1,6.83,1.31,8.21,8.21,0,0,1,3.34,3.52,18.25,18.25,0,0,1,1.48,5.37l2,12.51,1.13,7.29,0,.22-.21.06-17.21,5.22-5.06,1.48-1.36.38a1.69,1.69,0,0,1-.48.1,2.43,2.43,0,0,1,.46-.19l1.33-.45,5-1.63L289.62,414l-.17.28c-.37-2.32-.75-4.77-1.15-7.29-.68-4.43-1.33-8.66-1.93-12.51a18.14,18.14,0,0,0-1.39-5.25,7.85,7.85,0,0,0-3.15-3.4,11.52,11.52,0,0,0-6.62-1.42c-.82,0-1.45.13-1.88.19A3.93,3.93,0,0,1,272.67,384.71Z" style="fill:#263238"></path><path d="M238.28,422.59a8,8,0,0,1-.47-2,38.48,38.48,0,0,1-.42-5,39.38,39.38,0,0,1,.24-5,7.55,7.55,0,0,1,.39-2.06c.16,0-.19,3.18-.11,7.08S238.44,422.57,238.28,422.59Z" style="fill:#263238"></path><path d="M242.37,420.55a19.74,19.74,0,0,1-4.22-11.47c.16,0,.51,2.72,1.69,5.89S242.5,420.47,242.37,420.55Z" style="fill:#263238"></path><g style="opacity:0.30000000000000004"><path d="M237.41,409.18a35,35,0,0,0-.51,14.33,3.1,3.1,0,0,0,1,2.15c1,.71,2.54,0,3.07-1.17a6.47,6.47,0,0,0,.19-3.68c1,1.32,2.39,2.8,4,2.43a2.87,2.87,0,0,0,2-2.48,7.21,7.21,0,0,0-.53-3.33,30.24,30.24,0,0,0-6-10.1,6.74,6.74,0,0,1-3,1.73"></path></g></g></svg>