<svg xmlns="http://www.w3.org/2000/svg" viewBox="0 0 500 500"><g id="freepik--background-simple--inject-144"><path d="M392.39,168.27c34.91,41,19.7,100.69-10.06,140.57C337.46,369,227.33,401.19,156,353c-54.13-36.57-91.13-102.45-72.07-160.45,15-45.67,61.32-94.45,118.24-107.16,44.64-10,46.82,18.13,67.51,38.07,8.51,8.2,23,8.35,34.9,9.2,18.71,1.33,36.94,2.88,53.71,10.6C372.78,149.91,384,158.46,392.39,168.27Z" style="fill:#FE794E"></path><path d="M392.39,168.27c34.91,41,19.7,100.69-10.06,140.57C337.46,369,227.33,401.19,156,353c-54.13-36.57-91.13-102.45-72.07-160.45,15-45.67,61.32-94.45,118.24-107.16,44.64-10,46.82,18.13,67.51,38.07,8.51,8.2,23,8.35,34.9,9.2,18.71,1.33,36.94,2.88,53.71,10.6C372.78,149.91,384,158.46,392.39,168.27Z" style="fill:#fff;opacity:0.7000000000000001"></path></g><g id="freepik--Ground--inject-144"><ellipse cx="237.04" cy="408.67" rx="173.99" ry="18.79" style="fill:#FE794E"></ellipse><ellipse cx="237.04" cy="408.67" rx="173.99" ry="18.79" style="fill:#fff;opacity:0.5"></ellipse></g><g id="freepik--file-cabinet--inject-144"><rect x="362.15" y="166.86" width="84.81" height="223.93" style="fill:#fff;stroke:#263238;stroke-miterlimit:10;stroke-width:0.75px"></rect><rect x="368.35" y="172.81" width="72.41" height="57.66" style="fill:none;stroke:#263238;stroke-miterlimit:10;stroke-width:0.75px"></rect><rect x="368.67" y="244.04" width="72.41" height="57.66" style="fill:none;stroke:#263238;stroke-miterlimit:10;stroke-width:0.75px"></rect><rect x="368.67" y="315.27" width="72.41" height="57.66" style="fill:none;stroke:#263238;stroke-miterlimit:10;stroke-width:0.75px"></rect><rect x="395.1" y="178.02" width="18.92" height="13.39" style="fill:#263238"></rect><rect x="395.1" y="250.93" width="18.92" height="13.39" style="fill:#263238"></rect><rect x="395.1" y="323.83" width="18.92" height="13.39" style="fill:#263238"></rect></g><g id="freepik--Board--inject-144"><rect x="150.05" y="118" width="172.15" height="128.45" style="fill:#263238;stroke:#263238;stroke-linecap:round;stroke-linejoin:round"></rect><rect x="154.95" y="122.11" width="162.37" height="120.22" style="fill:#fff;stroke:#263238;stroke-linecap:round;stroke-linejoin:round"></rect><polygon points="171.11 139.32 169.77 154.51 183.1 155.84 184.43 138.52 171.11 139.32" style="fill:#fff;stroke:#263238;stroke-linecap:round;stroke-linejoin:round"></polygon><polygon points="212.68 165.43 212.68 176.63 225.47 177.69 226 166.77 212.68 165.43" style="fill:#fff;stroke:#263238;stroke-linecap:round;stroke-linejoin:round"></polygon><polygon points="208.98 146.93 208.98 158.12 221.77 159.19 222.3 148.26 208.98 146.93" style="fill:#fff;stroke:#263238;stroke-linecap:round;stroke-linejoin:round"></polygon><polygon points="194.17 189.12 194.17 200.31 206.96 201.38 207.5 190.45 194.17 189.12" style="fill:#fff;stroke:#263238;stroke-linecap:round;stroke-linejoin:round"></polygon><polygon points="188.69 137.72 227.34 132.66 227.6 138.79 190.56 143.85 188.69 137.72" style="fill:#FE794E;stroke:#263238;stroke-linecap:round;stroke-linejoin:round"></polygon><polygon points="232.48 218.4 271.06 223.85 269.68 229.83 232.64 224.81 232.48 218.4" style="fill:#fff;stroke:#263238;stroke-linecap:round;stroke-linejoin:round"></polygon><polygon points="186.03 160.9 186.03 175.83 199.09 175.83 198.55 160.64 186.03 160.9" style="fill:#FE794E;stroke:#263238;stroke-linecap:round;stroke-linejoin:round"></polygon><polygon points="292.62 179.41 292.62 194.33 305.68 194.33 305.14 179.14 292.62 179.41" style="fill:#FE794E;stroke:#263238;stroke-linecap:round;stroke-linejoin:round"></polygon><polygon points="250.52 132.92 250.52 152.38 263.31 153.97 263.31 132.39 250.52 132.92" style="fill:#FE794E;stroke:#263238;stroke-linecap:round;stroke-linejoin:round"></polygon><polygon points="287.29 152.91 273.17 150.78 271.57 165.43 284.89 167.57 287.29 152.91" style="fill:#fff;stroke:#263238;stroke-linecap:round;stroke-linejoin:round"></polygon><polygon points="258.51 183.29 264.91 199.81 280.37 192.35 272.37 177.96 258.51 183.29" style="fill:#FE794E;stroke:#263238;stroke-linecap:round;stroke-linejoin:round"></polygon><polygon points="228.4 153.18 232.13 188.62 248.92 187.29 245.72 151.04 228.4 153.18" style="fill:#fff;stroke:#263238;stroke-linecap:round;stroke-linejoin:round"></polygon><polygon points="176.97 186.75 174.3 206.74 186.56 207.81 189.49 187.55 176.97 186.75" style="fill:#FE794E;stroke:#263238;stroke-linecap:round;stroke-linejoin:round"></polygon><polygon points="226.95 187.34 213.36 189.21 216.82 208.93 231.21 206.53 226.95 187.34" style="fill:#FE794E;stroke:#263238;stroke-linecap:round;stroke-linejoin:round"></polygon><path d="M300.21,171.2a15.83,15.83,0,0,0-8-11.37" style="fill:none;stroke:#263238;stroke-linecap:round;stroke-linejoin:round"></path><polyline points="291.36 162.78 290.52 158.56 297.26 158.99" style="fill:none;stroke:#263238;stroke-linecap:round;stroke-linejoin:round"></polyline><line x1="261.05" y1="137.52" x2="253.47" y2="147.62" style="fill:none;stroke:#263238;stroke-linecap:round;stroke-linejoin:round"></line><line x1="253.47" y1="138.36" x2="261.05" y2="145.94" style="fill:none;stroke:#263238;stroke-linecap:round;stroke-linejoin:round"></line><path d="M172.64,160.25a12.05,12.05,0,0,0,10.53,10.95" style="fill:none;stroke:#263238;stroke-linecap:round;stroke-linejoin:round"></path><polyline points="181.9 167.83 185.27 172.04 178.96 173.72" style="fill:none;stroke:#263238;stroke-linecap:round;stroke-linejoin:round"></polyline><path d="M246.32,142.15s-13.9-3-20.21,5.89" style="fill:none;stroke:#263238;stroke-linecap:round;stroke-linejoin:round"></path><polyline points="224.43 145.51 224 150.99 230.32 148.46" style="fill:none;stroke:#263238;stroke-linecap:round;stroke-linejoin:round"></polyline></g><g id="freepik--Plants--inject-144"><path d="M115,325.26s-13.5,10.72-20,21.89-6.26,18.75-6.26,18.75,19-13.63,23.36-22.83A33,33,0,0,0,115,325.26Z" style="fill:#FE794E"></path><path d="M58,310.31s-3,19.25,4.13,31.1,26.57,24.18,26.57,24.18,2.81-8.65-7.41-21.79S58,310.31,58,310.31Z" style="fill:#FE794E"></path><path d="M89.71,344.25a66.1,66.1,0,0,0-9.38-30.08c-9.2-15.27-20.21-30.74-22.8-37.32a102.39,102.39,0,0,1-4.17-14s-3.83,12.7,3.34,29.59S89.71,344.25,89.71,344.25Z" style="fill:#FE794E"></path><path d="M89,338.16a179.08,179.08,0,0,0,18.36-29.59c7.49-15.79,6.3-32.18,6.3-32.18s-14.08,18.25-18.56,32.49A175.07,175.07,0,0,0,89,338.16Z" style="fill:#FE794E"></path><path d="M86.87,307s-2.56-22.68-8.67-35.27-18.63-32-18.63-32S58,261.42,67.87,278.8A199.08,199.08,0,0,0,86.87,307Z" style="fill:#FE794E"></path><path d="M86.36,293.92s12.72-18.95,16.2-32.5,6.51-36.49,6.51-36.49-15.26,15.62-19,35.23A199.45,199.45,0,0,0,86.36,293.92Z" style="fill:#FE794E"></path><path d="M92.68,212.12s-12,8.82-10.06,27.31,3.7,24.73,3.7,24.73C84.44,251.51,92.68,212.12,92.68,212.12Z" style="fill:#FE794E"></path><g style="opacity:0.5"><path d="M115,325.26s-13.5,10.72-20,21.89-6.26,18.75-6.26,18.75,19-13.63,23.36-22.83A33,33,0,0,0,115,325.26Z" style="fill:#fff"></path><path d="M58,310.31s-3,19.25,4.13,31.1,26.57,24.18,26.57,24.18,2.81-8.65-7.41-21.79S58,310.31,58,310.31Z" style="fill:#fff"></path><path d="M89.71,344.25a66.1,66.1,0,0,0-9.38-30.08c-9.2-15.27-20.21-30.74-22.8-37.32a102.39,102.39,0,0,1-4.17-14s-3.83,12.7,3.34,29.59S89.71,344.25,89.71,344.25Z" style="fill:#fff"></path><path d="M89,338.16a179.08,179.08,0,0,0,18.36-29.59c7.49-15.79,6.3-32.18,6.3-32.18s-14.08,18.25-18.56,32.49A175.07,175.07,0,0,0,89,338.16Z" style="fill:#fff"></path><path d="M86.87,307s-2.56-22.68-8.67-35.27-18.63-32-18.63-32S58,261.42,67.87,278.8A199.08,199.08,0,0,0,86.87,307Z" style="fill:#fff"></path><path d="M86.36,293.92s12.72-18.95,16.2-32.5,6.51-36.49,6.51-36.49-15.26,15.62-19,35.23A199.45,199.45,0,0,0,86.36,293.92Z" style="fill:#fff"></path><path d="M92.68,212.12s-12,8.82-10.06,27.31,3.7,24.73,3.7,24.73C84.44,251.51,92.68,212.12,92.68,212.12Z" style="fill:#fff"></path></g><path d="M88.46,371.78s1.1-2.93,1.1-25.24-2.92-31.09-2.92-53-1.47-42.43-1.47-42.43" style="fill:none;stroke:#FE794E;stroke-miterlimit:10;stroke-width:0.75px"></path><path d="M86.79,304.79s-8-17.13-11.32-23.56c-3.11-6-6.73-15.6-6.73-15.6" style="fill:none;stroke:#FE794E;stroke-miterlimit:10;stroke-width:0.75px"></path><path d="M69.36,307.54s17.76,33,20.35,36.71" style="fill:none;stroke:#FE794E;stroke-miterlimit:10;stroke-width:0.75px"></path><line x1="89.55" y1="335.38" x2="103.92" y2="301.12" style="fill:none;stroke:#FE794E;stroke-miterlimit:10;stroke-width:0.75px"></line><path d="M72.42,344.25c3.36,5.5,17.13,19.88,17.13,19.88s9.17-9.79,15-18.66" style="fill:none;stroke:#FE794E;stroke-miterlimit:10;stroke-width:0.75px"></path><line x1="86.79" y1="290.72" x2="95.66" y2="260.74" style="fill:none;stroke:#FE794E;stroke-miterlimit:10;stroke-width:0.75px"></line><polygon points="98.25 367.91 78.23 367.91 78.23 375.06 80.12 375.06 82.55 390.79 93.92 390.79 96.36 375.06 98.25 375.06 98.25 367.91" style="fill:#FE794E"></polygon><polygon points="98.25 367.91 78.23 367.91 78.23 375.06 80.12 375.06 82.55 390.79 93.92 390.79 96.36 375.06 98.25 375.06 98.25 367.91" style="fill:#FE794E"></polygon></g><g id="freepik--character-2--inject-144"><path d="M315.89,395.35s-12.31,6.58-12.45,8,7.58,1.43,13.3.71,10.73-1.57,9.87-4-10-5-10-5Z" style="fill:#FE794E;stroke:#263238;stroke-linecap:round;stroke-linejoin:round"></path><path d="M362.38,401.36s5.14,6.43,5.72,9.72-2.29,3-8.3.15a23.3,23.3,0,0,1-8.87-7.16Z" style="fill:#FE794E;stroke:#263238;stroke-linecap:round;stroke-linejoin:round"></path><path d="M313.45,262.46s-1.57,12.44.29,30.75,4.43,41.63,4.43,57.79-2.14,32.76-2.71,38.05a39,39,0,0,1-1.43,7.73s4.86,2,9.44,3.29,13.44,2,13.44,2,1-11.3,1-31.18-1.43-36.62-1.43-36.62,4.72,28.46,6.15,42.77a150.47,150.47,0,0,1,.29,26.32s.43,1.57,9.3,1.14a47.19,47.19,0,0,0,14.88-3S363,372.32,362.66,360s-5.43-24.75-9-33-4.15-11.16-3-15.73,7.86-26.75,7.86-37.05-.57-13-.57-13-1.43-2.15-18.88-2.72S313.45,262.46,313.45,262.46Z" style="fill:#263238;stroke:#263238;stroke-linecap:round;stroke-linejoin:round"></path><path d="M335.27,330.49c.71,2.51,1.21,3.78,1.21,3.78" style="fill:none;stroke:#fff;stroke-linecap:round;stroke-linejoin:round"></path><path d="M330.62,270s-.57,27.46,1.14,42.06a127.58,127.58,0,0,0,2.69,15.3" style="fill:none;stroke:#fff;stroke-linecap:round;stroke-linejoin:round"></path><path d="M356.84,338.71a25.39,25.39,0,0,1,1.32,3.88" style="fill:none;stroke:#fff;stroke-linecap:round;stroke-linejoin:round"></path><path d="M356.05,273.31A146.88,146.88,0,0,1,353,292.76c-3.46,15.22-6.58,24.57-6.23,28,.27,2.67,5.72,9.08,9.13,15.85" style="fill:none;stroke:#fff;stroke-linecap:round;stroke-linejoin:round"></path><path d="M342.66,137.4s-3-5.9,3.76-11,17.86.54,18.8,5.91-2.69,9.4-1.21,12.22,8.19,3.89,11.68,8,4.83,11,2.82,15.17-5.91,7.52-3.49,10.07,8.59,7.79,8.59,13.56-5.24,11.81-9.67,14.1-12.48-.81-16.65-3.09-7.65-9-6.44-15.31,5.77-6.84,3.63-10.33-6.18-6-4.3-9.4,4.56-5.91,4.16-8.86-4.56-5.5-4.56-5.5-4.57-10.21-5.51-12.22S342.66,137.4,342.66,137.4Z" style="fill:#263238;stroke:#263238;stroke-linecap:round;stroke-linejoin:round"></path><path d="M349.23,137.85s1.94-7.14,8.44-6.17,1,8.44,2.27,14,14.29,5.2,14.94,14.62-10.72,14-8.77,21.11,13.64,6.82,11.05,14.61-5.53,8.45-8.12,5.53" style="fill:none;stroke:#fff;stroke-linecap:round;stroke-linejoin:round;stroke-width:0.75px"></path><path d="M357,156s9.42,3.57,9.09,8.77-9.74,6.82-6.17,14.61" style="fill:none;stroke:#fff;stroke-linecap:round;stroke-linejoin:round;stroke-width:0.75px"></path><path d="M336.77,177.06s-20.31,4.43-21.6,6-20.6,29.46-20.6,29.46l-25-14.16-3,5.73L292.71,227l21.89-12.44,2.57,11.58s-4,24.32-4.57,29.9-.72,8.3-.72,8.3a68.72,68.72,0,0,0,22.6,2.29,70.54,70.54,0,0,0,23.46-5.44s-5.58-16.74-7.87-22.6-4.72-12.73-4.72-12.73l7.3-16.31,9,21.1,12.74-4.58s-9.76-40-10.76-41.55-15.88-6.73-15.88-6.73Z" style="fill:#FE794E;stroke:#263238;stroke-linecap:round;stroke-linejoin:round"></path><line x1="317.6" y1="198.52" x2="315.25" y2="190.67" style="fill:none;stroke:#263238;stroke-linecap:round;stroke-linejoin:round"></line><path d="M333.59,190.32A163.7,163.7,0,0,0,328.05,208c-2.42,9.69-.69,13.5-.69,19.73s1.39,37.37,1.39,37.37" style="fill:none;stroke:#263238;stroke-linecap:round;stroke-linejoin:round"></path><path d="M314.6,214.54s-2.86-8.44-2.15-10.73,4.87-4.86,5.15-5.29,2.15-5,2.15-5" style="fill:none;stroke:#263238;stroke-linecap:round;stroke-linejoin:round"></path><polyline points="347.78 198.28 352.65 209.53 347.09 203.47" style="fill:none;stroke:#263238;stroke-linecap:round;stroke-linejoin:round"></polyline><path d="M337.77,174.34s-4.15.72-5.15,2.29-6.15,12.87-6.15,12.87l9.58-4.14,6,8.15s7.87-14.45,8-15.59-4.86-4.29-5.29-4.29S337.77,174.34,337.77,174.34Z" style="fill:#fff;stroke:#263238;stroke-linecap:round;stroke-linejoin:round"></path><path d="M335.2,173.48a53.34,53.34,0,0,1,0,8.59c-.43,3-1.86,7.29-1.15,7.15s9.44-9.87,10.59-11.87,1.28-7.3,1.28-7.3S338.92,174.2,335.2,173.48Z" style="fill:#fff;stroke:#263238;stroke-linecap:round;stroke-linejoin:round"></path><path d="M352.46,156.06s.94-12.35-2.82-16-12.89-4.7-18.26.13-3.22,20.68-2.41,25.11,5.1,10.06,8.46,9.93,7.78-4.3,9-5.64,2-5.1,2-5.1,3.9-1.48,4.57-3.76A7.31,7.31,0,0,0,352.46,156.06Z" style="fill:#fff;stroke:#263238;stroke-linecap:round;stroke-linejoin:round"></path><path d="M334.36,153.75a6.45,6.45,0,0,1-.75,3.6c-.95,1.32-2.09,1.51-1.9,2.27S333.8,161,333.8,161" style="fill:none;stroke:#263238;stroke-linecap:round;stroke-linejoin:round"></path><path d="M334.56,165.93s.66,2.11,2.11,2.11.66-2.64.66-2.64A7.49,7.49,0,0,1,334.56,165.93Z" style="fill:#263238"></path><path d="M333.35,165.32s2.84,1.32,4.73-.57" style="fill:none;stroke:#263238;stroke-linecap:round;stroke-linejoin:round"></path><ellipse cx="331.07" cy="155.08" rx="0.57" ry="1.42" style="fill:#263238"></ellipse><path d="M338.46,155.65c0,.79-.25,1.42-.56,1.42s-.57-.63-.57-1.42.25-1.42.57-1.42S338.46,154.87,338.46,155.65Z" style="fill:#263238"></path><path d="M329,152.24a2.31,2.31,0,0,1,3-1.33" style="fill:none;stroke:#263238;stroke-linecap:round;stroke-linejoin:round"></path><path d="M336,150.72a3.37,3.37,0,0,1,4.55,2.47" style="fill:none;stroke:#263238;stroke-linecap:round;stroke-linejoin:round"></path><path d="M349.64,140.09c-3.76-3.63-12.89-4.7-18.26.13a8.93,8.93,0,0,0-2.25,3.65,16.44,16.44,0,0,1,6.55-1.9c4.7-.41,9.4,2.82,10.74,6S348,158.48,348,158.48s1.75-2.82,2.82-3.09a1.47,1.47,0,0,1,1.61.67S353.4,143.71,349.64,140.09Z" style="fill:#263238;stroke:#263238;stroke-linecap:round;stroke-linejoin:round"></path><path d="M365.12,223.19l-32.18,14.7,1.14,4.15s42.42-9,42.42-10.19S373,221.33,373,221.33" style="fill:#FE794E;stroke:#263238;stroke-linecap:round;stroke-linejoin:round"></path><path d="M324.47,219a10.68,10.68,0,0,1,1.52,3.64c.75,2.72,1.66,11.05,2,13.17s3.93,12.41,3.93,12.41l-2.57.61-8.94-26.5S321.6,218.09,324.47,219Z" style="fill:#fff;stroke:#263238;stroke-linecap:round;stroke-linejoin:round"></path><polygon points="303.61 226.3 311.91 254.77 330.5 250.19 323.21 222.3 303.61 226.3" style="fill:#fff;stroke:#263238;stroke-linecap:round;stroke-linejoin:round"></polygon><path d="M303.61,226.3s-1.7.88-1.7-.79.76-2.27,2.58-2.42,14.08-2.57,16.95-3.79,3-.3,3-.3a3.15,3.15,0,0,0-1.26,3.3Z" style="fill:#fff;stroke:#263238;stroke-linecap:round;stroke-linejoin:round"></path><path d="M332.94,237.89s-6.73-1.43-7.16-1.43-8.72,5.87-8.72,5.87l.71,2.43a5.87,5.87,0,0,0,1.58.14c1.14,0,5.29-.29,5.29-.29L319.06,246l.43,1s7.72-1.43,8.73-1.58,5.86-3.43,5.86-3.43Z" style="fill:#fff;stroke:#263238;stroke-linecap:round;stroke-linejoin:round"></path><polygon points="267.82 192.94 261.67 190.76 254.8 185.93 254.23 187.22 259.73 193.31 257.38 198.66 262.1 202.24 266.39 204.52 269.54 198.37 267.82 192.94" style="fill:#fff;stroke:#263238;stroke-linecap:round;stroke-linejoin:round"></polygon><path d="M269.25,197.8s-.71-5-1.71-6.15a32,32,0,0,0-3.87-3.15l-1.57-2.57s-.86.14-.86.86a25.35,25.35,0,0,0,1.43,4.43,9.52,9.52,0,0,0,1.58,2.72s-1,2.29-.43,3.72a8.81,8.81,0,0,0,2,2.72" style="fill:#fff;stroke:#263238;stroke-linecap:round;stroke-linejoin:round"></path><path d="M258,190.65s-2.86,7.72-2.43,8.3,4.29,1.71,4.72,1.28,2.72-6,2.72-6Z" style="fill:#fff;stroke:#263238;stroke-linecap:round;stroke-linejoin:round"></path><path d="M356.43,266.46s0,1.1-.11,3.09" style="fill:none;stroke:#fff;stroke-linecap:round;stroke-linejoin:round"></path></g><g id="freepik--character-1--inject-144"><path d="M161.83,182.3s8.69,25.14,10.71,31.5,4,17.54,3.56,19.25-8.69-6.68-12.1-5.43-3.1,3.57-3.1,3.57L157,221.25Z" style="fill:#FE794E;stroke:#263238;stroke-linecap:round;stroke-linejoin:round"></path><path d="M160.08,222.38s4.49-5,9.59-3.91" style="fill:none;stroke:#263238;stroke-linecap:round;stroke-linejoin:round"></path><path d="M159.83,220.65s2.55-6.56,8.38-6.56" style="fill:none;stroke:#263238;stroke-linecap:round;stroke-linejoin:round"></path><path d="M165.09,236.15s-3.42-1.71-4.19-3.41-.63-7.3,1.39-9,8.23-1.4,9.78-.78,3.72,4.5,4.66,6.83.93,5.43-.32,6.67a4.27,4.27,0,0,1-4,1.4C171,237.55,165.09,236.15,165.09,236.15Z" style="fill:#FE794E;stroke:#263238;stroke-linecap:round;stroke-linejoin:round"></path><path d="M123.65,173.92s-20,11-21.11,14,13,61.3,13,61.3a3.4,3.4,0,0,0,3.1,2.17c2.33,0,35.39-.62,36.47-.93s1.56-2,1.56-2.79,5.89-63.79,5.12-65.34S137,171,137,171l-8.54.31Z" style="fill:#FE794E;stroke:#263238;stroke-linecap:round;stroke-linejoin:round"></path><path d="M126.91,165.54a38.43,38.43,0,0,0-5,5.12c-2,2.64-.93,6.67.31,9.62s5.12,11.18,5.12,11.18,8.85-8.07,9.32-8.38,13.65,2.48,13.65,2.48-1.55-8.23-6.05-14.43-9.47-7.61-11.48-7.76S126.91,165.54,126.91,165.54Z" style="fill:#FE794E;stroke:#263238;stroke-linecap:round;stroke-linejoin:round"></path><path d="M123.49,159.33s2,7.14,2.49,9,3.41,7.14,5.43,9.78,6.52,6.52,6.83,5.12,3.1-22.5,1.7-25.76-13.34-12.73-16.29-11S123.49,159.33,123.49,159.33Z" style="fill:#fff;stroke:#263238;stroke-linecap:round;stroke-linejoin:round"></path><path d="M151,158.87s-1.7,3.41-7.91.93-8.85-6.05-9.62-8.38l-1.32-4c1.25-1.48,3-3.06,2.87-4.37a4.82,4.82,0,0,0-.93-2.33l8.69-4s2.48-1.08,1.4-4.19-7.76-7-16.45-4S115,138.69,116.82,144.9s7.45,16,7.45,16,2.17.78,3.26-.31-.31-5.27-.31-5.27l.49-.4c1,2.14,3.44,7.09,4.17,8.78.93,2.17,1.24,3.72,5.12,4.19s13.81,2.95,14.74-.47S151,158.87,151,158.87Z" style="fill:#263238;stroke:#263238;stroke-linecap:round;stroke-linejoin:round"></path><path d="M130,139.83a14.5,14.5,0,0,0-7,2.8c-3.77,2.65-4.19,5-4.19,5l7.55-3.77s-5.32,4.61-6,5.87,5.6-2.66,5.6-2.66l-3.36,4.2,4.06-1.54" style="fill:none;stroke:#fff;stroke-linecap:round;stroke-linejoin:round;stroke-width:0.5px"></path><path d="M128.93,139.78s3.72,2.17,2.95,4.19-2.8,4.34-2.64,5,4.5,10.87,6.2,12.57,13.35,3.11,15.06,1.4S149.26,152,147.08,146s-3.72-11-3.72-11Z" style="fill:#fff;stroke:#263238;stroke-linecap:round;stroke-linejoin:round"></path><polyline points="145.49 142.79 143.8 144.69 147.18 152.07 144.01 153.76" style="fill:none;stroke:#263238;stroke-linecap:round;stroke-linejoin:round"></polyline><path d="M140.31,147.82c.26.65.17,1.29-.19,1.43s-.85-.27-1.11-.91-.17-1.29.19-1.43S140.06,147.18,140.31,147.82Z" style="fill:#263238"></path><path d="M145.9,145.45c.26.64.18,1.28-.18,1.42s-.86-.26-1.12-.91-.17-1.28.19-1.43S145.65,144.8,145.9,145.45Z" style="fill:#263238"></path><line x1="140.5" y1="156.33" x2="144.42" y2="156.75" style="fill:none;stroke:#263238;stroke-linecap:round;stroke-linejoin:round"></line><line x1="140.36" y1="145.42" x2="135.47" y2="145.42" style="fill:none;stroke:#263238;stroke-linecap:round;stroke-linejoin:round"></line><path d="M128.72,157.19c-.46-.62-2.48-4.81-4.5-4s-1.08,4.19.62,6.36,5.13.15,5.13.15" style="fill:#fff;stroke:#263238;stroke-linecap:round;stroke-linejoin:round"></path><path d="M106.89,186.49s-4,2-5.28,4.35-1.39,7.29-.93,9.31,21.11,27.62,21.11,27.62l8.69-8.69-10.24-25.45" style="fill:#FE794E;stroke:#263238;stroke-linecap:round;stroke-linejoin:round"></path><path d="M131.41,211.48s-6.21,1.24-7.76,3.26-5.43,10.39-5.43,14.27,9,6.83,12.57,6.83,8.53-1.86,9.15-5.9-2-11-2.79-12.1S131.41,211.48,131.41,211.48Z" style="fill:#FE794E;stroke:#263238;stroke-linecap:round;stroke-linejoin:round"></path><path d="M139,169.42l1.4-10.24,6.67.15s.78.62.16,1.09-4.19.93-4.19.93l-.16,1.86,4.81-.62a15.15,15.15,0,0,1,1.4,2.48c.16.62-1.08,4.66-1.08,4.66l-1.25.31-.46-2.17-2.17.93s-.47,5.28-.94,5.74a27,27,0,0,1-2.79,1.86s-1.71,43.92-1.71,45.94c0,5.43-3.26,7.45-7,7.91s-5.9-2.94-6.36-5.74S139,169.42,139,169.42Z" style="fill:#fff;stroke:#263238;stroke-linecap:round;stroke-linejoin:round"></path><path d="M98.2,396.93S84.7,408.1,83.3,410.28s2.17,2.17,4.35,1.55,6-1.24,8.69-3.11a42.58,42.58,0,0,0,4.81-4l.15,2.17s2.49-.78,2.64-1.24.81-5.43.81-5.43Z" style="fill:#FE794E;stroke:#263238;stroke-linecap:round;stroke-linejoin:round"></path><path d="M173.78,396.93s13.5,11.17,14.89,13.35-2.17,2.17-4.34,1.55-6.05-1.24-8.69-3.11a41.53,41.53,0,0,1-4.81-4l-.16,2.17s-2.48-.78-2.64-1.24-.8-5.43-.8-5.43Z" style="fill:#FE794E;stroke:#263238;stroke-linecap:round;stroke-linejoin:round"></path><path d="M172.6,361.55c-.15-6.68-4.94-16.92-4.94-17.39s-6.89-61.61-6.89-61.61l-4.35-33.36-20.74.29-20.75-.29-4.34,33.36s-6.89,61.15-6.89,61.61-4.8,10.71-5,17.39S97,397.86,97,397.86l7.79,2.33s13.93-47.8,16.17-57,6.59-31.5,8.24-39.88,6.14-21.88,6.14-21.88l.38-.09.37.09s4.5,13.5,6.14,21.88,6,30.73,8.24,39.88,16.18,57,16.18,57l7.79-2.33S172.75,368.22,172.6,361.55Z" style="fill:#263238;stroke:#263238;stroke-linecap:round;stroke-linejoin:round"></path><line x1="144.9" y1="269.09" x2="137.98" y2="278.2" style="fill:none;stroke:#fff;stroke-linecap:round;stroke-linejoin:round"></line><line x1="119.4" y1="257.8" x2="129.97" y2="266.91" style="fill:none;stroke:#fff;stroke-linecap:round;stroke-linejoin:round"></line><line x1="117.58" y1="260.35" x2="125.23" y2="265.45" style="fill:none;stroke:#fff;stroke-linecap:round;stroke-linejoin:round"></line><polyline points="139.07 251.97 135.06 261.81 138.71 264.72 136.89 270.55" style="fill:none;stroke:#fff;stroke-linecap:round;stroke-linejoin:round"></polyline><path d="M172.22,240.65s3.11-5,2.33-8.22-5.58-5.9-9.31-4.66-3.88,6.21-3.88,9.16-1.4,15.83-1.4,15.83l-5.43,9.31,4.19,4.81s4.35-8.23,7.61-13.66A87.79,87.79,0,0,0,172.22,240.65Z" style="fill:#fff;stroke:#263238;stroke-linecap:round;stroke-linejoin:round"></path><path d="M159.34,254.46,153,257.72l-4.34,6.21.77.78a27,27,0,0,1,3.26-1.87c1.4-.62,3.88-1.55,3.88-1.55" style="fill:#fff;stroke:#263238;stroke-linecap:round;stroke-linejoin:round"></path></g></svg>